<?xml version="1.0" encoding="utf-8"?>
<!-- Generator: Adobe Illustrator 25.2.1, SVG Export Plug-In . SVG Version: 6.00 Build 0)  -->
<svg version="1.1" id="Layer_1" xmlns="http://www.w3.org/2000/svg" xmlns:xlink="http://www.w3.org/1999/xlink" x="0px" y="0px"
	 viewBox="0 0 600 337" style="enable-background:new 0 0 600 337;" xml:space="preserve">
<style type="text/css">
	.st0{fill:#FFFFFF;}
	.st1{fill:#F2F3F4;}
	.st2{fill:#75C7EF;}
	.st3{fill:none;stroke:#000000;stroke-width:2.5;stroke-miterlimit:10;}
</style>
<g>
	
		<rect x="131.2" y="-131.5" transform="matrix(4.489571e-11 -1 1 4.489571e-11 131.5 468.5)" class="st0" width="337.5" height="600"/>
	<g>
		<path class="st1" d="M66.9,73.6c1.8,9.7,17,17.7,29.7,42.1c7.5,14.1,14.6,34.3,19.2,61.6c11.1,61,6.3,122.4,28.5,159.9h182.4
			C430.5,271.9,493,136,472.1-0.2l-363.5,0C91.5,51.1,66.9,60.5,66.9,73.6z"/>
	</g>
	<polygon class="st2" points="48.5,299.8 105.5,266.9 48.5,234 	"/>
	<polygon class="st2" points="530.1,122.7 448.9,75.8 530.1,28.9 	"/>
	<polygon class="st2" points="322.1,292.9 78.9,152.5 322.1,12 	"/>
	<g>
		<path class="st0" d="M236.8,84.5c22.2,23.2,36.2,51,41.9,81.1c13.6,71.5-29.8,126.8-29.8,126.8c1.4,1.1,13.1-15.6,14-17
			c15.2-23.4,23.1-50.3,23.9-76.9c1.2-41-13.8-81.6-42.4-111.2c-1.9-2-25-23.1-26.6-20.8C217.6,66.9,235.4,83,236.8,84.5z"/>
		<path class="st0" d="M41,38.1c88.2-47.2,194.7-15.3,242.8,68.3c14.7,25.4,21.4,53.7,21.4,53.7c1-0.2-3.2-26.7-17.3-53.1
			c-31.4-58.6-91.5-94-155.9-95c-32.5-0.5-63.6,7.7-90.7,23.3C18.9,48.3,9.5,54.9,41,38.1z"/>
	</g>
	<path d="M600,266.5c-2.7,0.2-5.2,0.3-7.9,0.3c-2.3,0-4.7-0.1-7-0.3l0.4-5c2.2,0.2,4.4,0.2,6.7,0.3c2.6,0,5.3-0.1,7.9-0.3V266.5z
		 M600,60.8c-2.2-0.2-4.5-0.3-6.7-0.3c-2.5,0-5.1,0.1-7.6,0.2l-0.4-5c2.7-0.2,5.4-0.3,8-0.3c2.2,0,4.5,0.1,6.7,0.2V60.8z
		 M571.3,259.4l-1.1,4.9c-4.9-1.1-9.7-2.5-14.4-4.3l1.8-4.7C562,257,566.6,258.4,571.3,259.4z M571.5,62.8c-4.7,1-9.3,2.4-13.8,4
		l-1.7-4.7c4.7-1.7,9.6-3.2,14.5-4.2L571.5,62.8z M544.4,249.4l-2.4,4.4c-4.4-2.4-8.7-5.1-12.7-8.1l3-4
		C536.2,244.5,540.2,247.1,544.4,249.4z M544.6,72.8c-4.2,2.3-8.3,4.9-12.1,7.7l-3-4c4-3,8.3-5.7,12.7-8.1L544.6,72.8z M521.5,232.2
		l-3.5,3.5c-3.5-3.5-6.8-7.4-9.8-11.4l4-3C515,225.2,518.2,228.8,521.5,232.2z M521.7,89.9c-3.4,3.4-6.6,7-9.4,10.8l-4-3
		c3-4,6.3-7.8,9.9-11.4L521.7,89.9z M504.4,209.3l-4.4,2.4c-2.4-4.4-4.5-9-6.2-13.7l4.7-1.7C500.1,200.7,502.1,205.1,504.4,209.3z
		 M504.5,112.8c-2.3,4.2-4.3,8.6-6,13l0,0.1l-4.7-1.8l0-0.1c1.8-4.7,3.9-9.3,6.3-13.7L504.5,112.8z M494.4,182.5l-4.9,1.1
		c-1.1-4.9-1.8-9.9-2.1-14.9l5-0.4C492.7,173,493.4,177.8,494.4,182.5z M494.4,139.7c-1,4.7-1.7,9.4-2.1,14.2l-5-0.4
		c0.4-5,1.1-10,2.2-14.9L494.4,139.7z"/>
	<g>
		<circle class="st3" cx="438.2" cy="304.8" r="5.4"/>
		<circle class="st3" cx="438.2" cy="284.8" r="5.4"/>
		<circle class="st3" cx="458.2" cy="304.8" r="5.4"/>
		<circle class="st3" cx="458.2" cy="284.8" r="5.4"/>
		<circle class="st3" cx="478.2" cy="304.8" r="5.4"/>
		<circle class="st3" cx="478.2" cy="284.8" r="5.4"/>
	</g>
	<g>
		<g>
			<path d="M214.3,217.9c0,1.8-0.7,3.4-1.9,4.7c-1.3,1.3-2.9,1.9-4.7,1.9s-3.4-0.7-4.7-1.9c-1.3-1.3-1.9-2.9-1.9-4.7
				s0.7-3.4,1.9-4.7c2.6-2.6,6.8-2.6,9.4,0C213.6,214.5,214.3,216.1,214.3,217.9z M203.6,217.9c0,1.1,0.4,2.1,1.2,2.9
				s1.8,1.2,2.9,1.2s2.1-0.4,2.9-1.2s1.2-1.8,1.2-2.9s-0.4-2.1-1.2-2.9c-1.6-1.6-4.2-1.6-5.8,0C204,215.8,203.6,216.8,203.6,217.9z"
				/>
			<path d="M200.2,232.1c0,1.8-0.7,3.4-1.9,4.7c-1.3,1.3-2.9,1.9-4.7,1.9s-3.4-0.7-4.7-1.9c-1.3-1.3-1.9-2.9-1.9-4.7
				s0.7-3.4,1.9-4.7c1.3-1.3,2.9-1.9,4.7-1.9s3.4,0.7,4.7,1.9C199.5,228.6,200.2,230.3,200.2,232.1z M189.4,232.1
				c0,1.1,0.4,2.1,1.2,2.9c0.8,0.8,1.8,1.2,2.9,1.2s2.1-0.4,2.9-1.2c0.8-0.8,1.2-1.8,1.2-2.9c0-1.1-0.4-2.1-1.2-2.9
				s-1.8-1.2-2.9-1.2s-2.1,0.4-2.9,1.2S189.4,231,189.4,232.1z"/>
			<path d="M186,246.2c0,1.8-0.7,3.4-1.9,4.7c-1.3,1.3-2.9,1.9-4.7,1.9c-1.8,0-3.4-0.7-4.7-1.9c-1.3-1.3-1.9-2.9-1.9-4.7
				s0.7-3.4,1.9-4.7c1.3-1.3,2.9-1.9,4.7-1.9c1.8,0,3.4,0.7,4.7,1.9C185.3,242.8,186,244.4,186,246.2z M175.3,246.2
				c0,1.1,0.4,2.1,1.2,2.9c0.8,0.8,1.8,1.2,2.9,1.2c1.1,0,2.1-0.4,2.9-1.2c0.8-0.8,1.2-1.8,1.2-2.9s-0.4-2.1-1.2-2.9
				c-0.8-0.8-1.8-1.2-2.9-1.2c-1.1,0-2.1,0.4-2.9,1.2C175.7,244.1,175.3,245.1,175.3,246.2z"/>
			<path d="M171.9,232.1c0,1.8-0.7,3.4-1.9,4.7c-2.6,2.6-6.8,2.6-9.4,0c-1.3-1.3-1.9-2.9-1.9-4.7s0.7-3.4,1.9-4.7
				c2.6-2.6,6.8-2.6,9.4,0C171.2,228.6,171.9,230.3,171.9,232.1z M161.1,232.1c0,1.1,0.4,2.1,1.2,2.9c1.6,1.6,4.2,1.6,5.8,0
				c0.8-0.8,1.2-1.8,1.2-2.9c0-1.1-0.4-2.1-1.2-2.9c-1.6-1.6-4.2-1.6-5.8,0C161.6,229.9,161.1,231,161.1,232.1z"/>
			<path d="M157.7,217.9c0,1.8-0.7,3.4-1.9,4.7c-2.6,2.6-6.8,2.6-9.4,0c-1.3-1.3-1.9-2.9-1.9-4.7s0.7-3.4,1.9-4.7
				c2.6-2.6,6.8-2.6,9.4,0C157.1,214.5,157.7,216.1,157.7,217.9z M147,217.9c0,1.1,0.4,2.1,1.2,2.9c1.6,1.6,4.2,1.6,5.8,0
				c0.8-0.8,1.2-1.8,1.2-2.9s-0.4-2.1-1.2-2.9c-1.6-1.6-4.2-1.6-5.8,0C147.4,215.8,147,216.8,147,217.9z"/>
		</g>
		<g>
			<path d="M214.3,175.5c0,1.8-0.7,3.4-1.9,4.7c-1.3,1.3-2.9,1.9-4.7,1.9s-3.4-0.7-4.7-1.9c-1.3-1.3-1.9-2.9-1.9-4.7
				s0.7-3.4,1.9-4.7c1.3-1.3,2.9-1.9,4.7-1.9s3.4,0.7,4.7,1.9C213.6,172.1,214.3,173.7,214.3,175.5z M203.6,175.5
				c0,1.1,0.4,2.1,1.2,2.9s1.8,1.2,2.9,1.2s2.1-0.4,2.9-1.2s1.2-1.8,1.2-2.9c0-1.1-0.4-2.1-1.2-2.9c-0.8-0.8-1.8-1.2-2.9-1.2
				s-2.1,0.4-2.9,1.2C204,173.4,203.6,174.4,203.6,175.5z"/>
			<path d="M200.2,189.6c0,1.8-0.7,3.4-1.9,4.7c-2.6,2.6-6.8,2.6-9.4,0c-1.3-1.3-1.9-2.9-1.9-4.7s0.7-3.4,1.9-4.7
				c1.3-1.3,2.9-1.9,4.7-1.9s3.4,0.7,4.7,1.9C199.5,186.2,200.2,187.9,200.2,189.6z M189.4,189.6c0,1.1,0.4,2.1,1.2,2.9
				c1.6,1.6,4.2,1.6,5.8,0c0.8-0.8,1.2-1.8,1.2-2.9s-0.4-2.1-1.2-2.9s-1.8-1.2-2.9-1.2s-2.1,0.4-2.9,1.2S189.4,188.5,189.4,189.6z"
				/>
			<path d="M186,203.8c0,1.8-0.7,3.4-1.9,4.7c-1.3,1.3-2.9,1.9-4.7,1.9c-1.8,0-3.4-0.7-4.7-1.9c-1.3-1.3-1.9-2.9-1.9-4.7
				s0.7-3.4,1.9-4.7c2.6-2.6,6.8-2.6,9.4,0C185.3,200.3,186,202,186,203.8z M175.3,203.8c0,1.1,0.4,2.1,1.2,2.9
				c0.8,0.8,1.8,1.2,2.9,1.2c1.1,0,2.1-0.4,2.9-1.2c0.8-0.8,1.2-1.8,1.2-2.9s-0.4-2.1-1.2-2.9c-1.6-1.6-4.2-1.6-5.8,0
				C175.7,201.6,175.3,202.7,175.3,203.8z"/>
			<path d="M171.9,189.6c0,1.8-0.7,3.4-1.9,4.7c-2.6,2.6-6.8,2.6-9.4,0c-1.3-1.3-1.9-2.9-1.9-4.7s0.7-3.4,1.9-4.7
				c2.6-2.6,6.8-2.6,9.4,0C171.2,186.2,171.9,187.9,171.9,189.6z M161.1,189.6c0,1.1,0.4,2.1,1.2,2.9c1.6,1.6,4.2,1.6,5.8,0
				c0.8-0.8,1.2-1.8,1.2-2.9s-0.4-2.1-1.2-2.9c-1.6-1.6-4.2-1.6-5.8,0C161.6,187.5,161.1,188.5,161.1,189.6z"/>
			<path d="M157.7,175.5c0,1.8-0.7,3.4-1.9,4.7c-2.6,2.6-6.8,2.6-9.4,0c-1.3-1.3-1.9-2.9-1.9-4.7s0.7-3.4,1.9-4.7
				c2.6-2.6,6.8-2.6,9.4,0C157.1,172.1,157.7,173.7,157.7,175.5z M147,175.5c0,1.1,0.4,2.1,1.2,2.9c1.6,1.6,4.2,1.6,5.8,0
				c0.8-0.8,1.2-1.8,1.2-2.9c0-1.1-0.4-2.1-1.2-2.9c-1.6-1.6-4.2-1.6-5.8,0C147.4,173.4,147,174.4,147,175.5z"/>
		</g>
		<g>
			<path d="M214.3,260.3c0,1.8-0.7,3.4-1.9,4.7c-2.6,2.6-6.8,2.6-9.4,0c-1.3-1.3-1.9-2.9-1.9-4.7s0.7-3.4,1.9-4.7
				c1.3-1.3,2.9-1.9,4.7-1.9c1.8,0,3.4,0.7,4.7,1.9C213.6,256.9,214.3,258.6,214.3,260.3z M203.6,260.3c0,1.1,0.4,2.1,1.2,2.9
				c1.6,1.6,4.2,1.6,5.8,0c0.8-0.8,1.2-1.8,1.2-2.9s-0.4-2.1-1.2-2.9c-0.8-0.8-1.8-1.2-2.9-1.2c-1.1,0-2.1,0.4-2.9,1.2
				C204,258.2,203.6,259.2,203.6,260.3z"/>
			<path d="M200.2,274.5c0,1.8-0.7,3.4-1.9,4.7c-1.3,1.3-2.9,1.9-4.7,1.9s-3.4-0.7-4.7-1.9c-1.3-1.3-1.9-2.9-1.9-4.7
				s0.7-3.4,1.9-4.7c2.6-2.6,6.8-2.6,9.4,0C199.5,271,200.2,272.7,200.2,274.5z M189.4,274.5c0,1.1,0.4,2.1,1.2,2.9s1.8,1.2,2.9,1.2
				s2.1-0.4,2.9-1.2s1.2-1.8,1.2-2.9s-0.4-2.1-1.2-2.9c-1.6-1.6-4.2-1.6-5.8,0C189.8,272.3,189.4,273.4,189.4,274.5z"/>
			<path d="M186,288.6c0,1.8-0.7,3.4-1.9,4.7c-1.3,1.3-2.9,1.9-4.7,1.9s-3.4-0.7-4.7-1.9c-1.3-1.3-1.9-2.9-1.9-4.7
				c0-1.8,0.7-3.4,1.9-4.7c1.3-1.3,2.9-1.9,4.7-1.9s3.4,0.7,4.7,1.9C185.3,285.2,186,286.9,186,288.6z M175.3,288.6
				c0,1.1,0.4,2.1,1.2,2.9c0.8,0.8,1.8,1.2,2.9,1.2s2.1-0.4,2.9-1.2c0.8-0.8,1.2-1.8,1.2-2.9c0-1.1-0.4-2.1-1.2-2.9
				c-0.8-0.8-1.8-1.2-2.9-1.2s-2.1,0.4-2.9,1.2C175.7,286.5,175.3,287.5,175.3,288.6z"/>
			<path d="M171.9,274.5c0,1.8-0.7,3.4-1.9,4.7c-1.3,1.3-2.9,1.9-4.7,1.9s-3.4-0.7-4.7-1.9c-1.3-1.3-1.9-2.9-1.9-4.7
				s0.7-3.4,1.9-4.7c2.6-2.6,6.8-2.6,9.4,0C171.2,271,171.9,272.7,171.9,274.5z M161.1,274.5c0,1.1,0.4,2.1,1.2,2.9
				c0.8,0.8,1.8,1.2,2.9,1.2c1.1,0,2.1-0.4,2.9-1.2s1.2-1.8,1.2-2.9s-0.4-2.1-1.2-2.9c-1.6-1.6-4.2-1.6-5.8,0
				C161.6,272.3,161.1,273.4,161.1,274.5z"/>
			<path d="M157.7,260.3c0,1.8-0.7,3.4-1.9,4.7c-2.6,2.6-6.8,2.6-9.4,0c-1.3-1.3-1.9-2.9-1.9-4.7s0.7-3.4,1.9-4.7
				c2.6-2.6,6.8-2.6,9.4,0C157.1,256.9,157.7,258.6,157.7,260.3z M147,260.3c0,1.1,0.4,2.1,1.2,2.9c1.6,1.6,4.2,1.6,5.8,0
				c0.8-0.8,1.2-1.8,1.2-2.9s-0.4-2.1-1.2-2.9c-1.6-1.6-4.2-1.6-5.8,0C147.4,258.2,147,259.2,147,260.3z"/>
		</g>
	</g>
	<path d="M437.8,237c-25.6,10.8-48.5,26.3-68.2,46c-16,16-29.3,34.2-39.5,54.2h2.9c35.4-68,106.5-114.6,188.4-114.6
		c27.8,0,54.3,5.4,78.6,15.1V235c-25-9.9-51.5-14.9-78.6-14.9C492.4,220.1,464.3,225.8,437.8,237z"/>
	<path class="st0" d="M0,80.2c33.5-38.5,80.3-58.4,127.9-58.7c4.6,0-9.2,0.1,0,0c42.4-0.1,83.7,15.4,115.2,43.8
		c28.7,25.8,48.2,61.2,54.2,99.4c4.8,30.6-0.8,58.5-2.1,58.3c0,0,3-28.3-1.5-54.5c-10.5-61.7-53.6-110.9-109.4-130.7
		C119.1,14.5,44.5,35.1,0,88L0,80.2z"/>
	<path class="st0" d="M0,104.5c22-32.7,56.7-56,95.3-64.3c28.1-6,58.4-4.2,86.1,6.2c1.8,0.7,22.5,9.5,21.8,10.8
		c-0.1,0.1-19.6-8-21.4-8.7c-29.4-10.1-59.8-11.2-87.5-4.8C56,52.7,22.3,76.1,0,108.3C0,107,0,105.8,0,104.5z"/>
	<path class="st0" d="M0,301.5c11.8,14,25.7,25.9,41.2,35.7c-3.1,0-10,0-10,0C24.9,333.2,11.1,322.3,0,310L0,301.5z"/>
	<path class="st0" d="M284.6,264.1c-5.4,12.6-12.3,24.4-20.7,35.2c-12,15.6-24.4,26.2-39.9,37.9c0,0-6.6,0-9.2,0
		c20-12.1,37.5-28.4,51.1-47.5c6.7-9.3,12.3-19.3,17.1-29.6c1-2.2,9.8-25.5,10.1-25.4C295.3,235.3,285.6,261.8,284.6,264.1z"/>
	<path class="st0" d="M237,337.2c23.8-18.3,43.4-42.6,55.5-70c7-15.8,11.9-32.4,14.3-49.5c2.7-18.9,1.8-40.5,1.8-40.5
		c0.7-0.1,2.9,19.9,0,42c-2.2,17.2-7.2,33.8-14.1,49.7c-13.6,29.2-30.1,49-53.9,68.3H237z"/>
	<path class="st0" d="M0,293.5c0-1.4,0-2.8,0-4.1c12.9,17.7,30.1,32.5,30.1,32.5C29.7,322.4,13.7,310.8,0,293.5z"/>
	<g>
		<path d="M47.1,120.2c0,3.7-3,6.6-6.6,6.6s-6.6-3-6.6-6.6s3-6.6,6.6-6.6S47.1,116.5,47.1,120.2z M36.4,120.2c0,2.3,1.9,4.1,4.1,4.1
			s4.1-1.9,4.1-4.1c0-2.3-1.9-4.1-4.1-4.1S36.4,117.9,36.4,120.2z"/>
		<path d="M47.1,100.2c0,3.7-3,6.6-6.6,6.6s-6.6-3-6.6-6.6s3-6.6,6.6-6.6S47.1,96.5,47.1,100.2z M36.4,100.2c0,2.3,1.9,4.1,4.1,4.1
			s4.1-1.9,4.1-4.1c0-2.3-1.9-4.1-4.1-4.1S36.4,97.9,36.4,100.2z"/>
		<path d="M47.1,80.2c0,3.7-3,6.6-6.6,6.6s-6.6-3-6.6-6.6s3-6.6,6.6-6.6S47.1,76.5,47.1,80.2z M36.4,80.2c0,2.3,1.9,4.1,4.1,4.1
			s4.1-1.9,4.1-4.1c0-2.3-1.9-4.1-4.1-4.1S36.4,77.9,36.4,80.2z"/>
		<path d="M47.1,60.2c0,3.7-3,6.6-6.6,6.6s-6.6-3-6.6-6.6s3-6.6,6.6-6.6S47.1,56.5,47.1,60.2z M36.4,60.2c0,2.3,1.9,4.1,4.1,4.1
			s4.1-1.9,4.1-4.1c0-2.3-1.9-4.1-4.1-4.1S36.4,57.9,36.4,60.2z"/>
		<path d="M47.1,40.2c0,3.7-3,6.6-6.6,6.6s-6.6-3-6.6-6.6s3-6.6,6.6-6.6S47.1,36.5,47.1,40.2z M36.4,40.2c0,2.3,1.9,4.1,4.1,4.1
			s4.1-1.9,4.1-4.1c0-2.3-1.9-4.1-4.1-4.1S36.4,37.9,36.4,40.2z"/>
		<path d="M67.1,110.2c0,3.7-3,6.6-6.6,6.6s-6.6-3-6.6-6.6s3-6.6,6.6-6.6S67.1,106.5,67.1,110.2z M56.4,110.2c0,2.3,1.9,4.1,4.1,4.1
			s4.1-1.9,4.1-4.1c0-2.3-1.9-4.1-4.1-4.1S56.4,107.9,56.4,110.2z"/>
		<path d="M67.1,90.2c0,3.7-3,6.6-6.6,6.6s-6.6-3-6.6-6.6s3-6.6,6.6-6.6S67.1,86.5,67.1,90.2z M56.4,90.2c0,2.3,1.9,4.1,4.1,4.1
			s4.1-1.9,4.1-4.1c0-2.3-1.9-4.1-4.1-4.1S56.4,87.9,56.4,90.2z"/>
		<path d="M67.1,70.2c0,3.7-3,6.6-6.6,6.6s-6.6-3-6.6-6.6s3-6.6,6.6-6.6S67.1,66.5,67.1,70.2z M56.4,70.2c0,2.3,1.9,4.1,4.1,4.1
			s4.1-1.9,4.1-4.1c0-2.3-1.9-4.1-4.1-4.1S56.4,67.9,56.4,70.2z"/>
		<path d="M67.1,50.2c0,3.7-3,6.6-6.6,6.6s-6.6-3-6.6-6.6s3-6.6,6.6-6.6S67.1,46.5,67.1,50.2z M56.4,50.2c0,2.3,1.9,4.1,4.1,4.1
			s4.1-1.9,4.1-4.1c0-2.3-1.9-4.1-4.1-4.1S56.4,47.9,56.4,50.2z"/>
		<path d="M67.1,30.2c0,3.7-3,6.6-6.6,6.6s-6.6-3-6.6-6.6s3-6.6,6.6-6.6S67.1,26.5,67.1,30.2z M56.4,30.2c0,2.3,1.9,4.1,4.1,4.1
			s4.1-1.9,4.1-4.1c0-2.3-1.9-4.1-4.1-4.1S56.4,27.9,56.4,30.2z"/>
	</g>
</g>
<g>
	<g>
		<path d="M317.4,120.8h-9.1l-1.7,6.8h-3.9l8.1-31.5h4l8.1,31.5h-3.9L317.4,120.8z M316.6,117.4l-2.6-10.7c-0.5-2-0.9-4.7-1.1-5.9
			h-0.1c-0.2,1.2-0.6,3.9-1.1,5.9l-2.6,10.7H316.6z"/>
		<path d="M344.2,118.8c0,5.6-3.5,8.8-9,8.8h-8.6V96.2h8c5.2,0,8.4,3.1,8.4,8.4c0,3.4-1.4,5.9-3.6,6.9
			C342.4,112.4,344.2,115.1,344.2,118.8z M330.3,99.6v10.2h4.1c3.2,0,4.8-1.8,4.8-5.2s-1.6-5-4.9-5H330.3z M340.5,118.8
			c0-3.6-2.3-5.5-5.9-5.5h-4.3v10.9h4.6C338.6,124.2,340.5,122.5,340.5,118.8z"/>
		<path d="M347.1,119.3h3.7c0.1,3.6,2.1,5.4,5.2,5.4c3.4,0,5.1-2.1,5.1-5.1c0-6.7-13.5-6.9-13.5-16.2c0-4.5,3.3-7.8,8.4-7.8
			c5.2,0,8.3,3.5,8.5,8.6h-3.7c-0.1-3.5-2-5.1-4.7-5.1c-3,0-4.7,1.7-4.7,4.3c0,6.7,13.6,6.6,13.6,16.2c0,4.5-3.1,8.6-8.8,8.6
			C350.7,128.2,347.2,124.8,347.1,119.3z"/>
		<path d="M384.4,99.6h-6.7v28H374v-28h-6.7v-3.5h17.2V99.6z"/>
		<path d="M395.2,115.8H392v11.9h-3.7V96.2h7.7c5.9,0,9.2,3.5,9.2,9.5c0,5.2-2.3,8.6-6.3,9.7l7.3,12.2h-4.2L395.2,115.8z M392,112.3
			h4c3.6,0,5.5-2.3,5.5-6.5c0-4.1-1.9-6.2-5.5-6.2h-4V112.3z"/>
		<path d="M422.4,120.8h-9.1l-1.7,6.8h-3.9l8.1-31.5h4l8.1,31.5H424L422.4,120.8z M421.6,117.4l-2.6-10.7c-0.5-2-0.9-4.7-1.1-5.9
			h-0.1c-0.2,1.2-0.6,3.9-1.1,5.9l-2.6,10.7H421.6z"/>
		<path d="M430.1,118.6v-13.3c0-6.2,3.5-9.7,8.8-9.7c5.4,0,8.7,3.3,9,9.4h-3.6c-0.3-4-2.2-5.9-5.4-5.9c-3,0-5,2-5,6.2v13.3
			c0,4.2,2.1,6.2,5.2,6.2c3.3,0,5.2-1.9,5.5-5.9h3.6c-0.4,6-3.7,9.4-9.2,9.4C433.7,128.2,430.1,124.8,430.1,118.6z"/>
		<path d="M467.5,99.6h-6.7v28H457v-28h-6.7v-3.5h17.2V99.6z"/>
	</g>
	<g>
		<path d="M365.1,144.4v4.5c0,3-1.7,4.6-3.9,4.6c-1.4,0-2.5-0.6-3.2-1.6l-0.1,1.4H357v-18.1h1.1v6.7c0.6-1.3,1.9-1.9,3.3-1.9
			C363.6,139.9,365.1,141.6,365.1,144.4z M364,144.4c0-2.4-1.1-3.6-3-3.6c-1.7,0-3,1.4-3,3.9v4.3c0,2.2,1.3,3.5,3,3.5
			c1.9,0,3.1-1.2,3.1-3.6V144.4z"/>
		<path d="M375.8,144v9.2h-1l-0.1-1.4c-0.6,1.1-1.7,1.7-3.2,1.7c-2.3,0-3.9-1.4-3.9-4c0-2.5,1.6-3.9,4.4-3.9h2.7V144
			c0-2-1-3.1-2.8-3.1c-1.7,0-2.8,1-2.9,2.5H368c0.1-2.1,1.6-3.6,4-3.6C374.4,139.9,375.8,141.4,375.8,144z M374.7,149.3v-2.6H372
			c-2.2,0-3.3,1-3.3,2.9c0,1.9,1.2,2.9,3,2.9C373.6,152.5,374.7,151.3,374.7,149.3z"/>
		<path d="M379,149.1v-4.8c0-2.8,1.6-4.4,4-4.4c2.6,0,4.1,1.7,4.2,4.5H386c0-2.2-1.1-3.5-3.1-3.5c-1.8,0-2.9,1.2-2.9,3.4v4.8
			c0,2.2,1.1,3.4,2.9,3.4c1.9,0,3-1.2,3.1-3.5h1.1c0,2.9-1.6,4.5-4.2,4.5C380.5,153.5,379,151.8,379,149.1z"/>
		<path d="M392.2,146.4l-1.3,1.4v5.4h-1.1v-18.1h1.1v11.2l5.4-6.2h1.4l-4.8,5.4l5.3,7.7H397L392.2,146.4z"/>
		<path d="M407.6,140.2v13.9c0,2.4-1.5,4-3.9,4c-2.4,0-4-1.5-4.1-3.7h1.1c0.2,1.7,1.2,2.7,3,2.7c1.8,0,2.8-1.1,2.8-2.9v-2.7
			c-0.6,1-1.8,1.6-3,1.6c-2.4,0-4.1-1.7-4.1-4.5v-4c0-3,1.7-4.6,4-4.6c1.3,0,2.4,0.6,3.1,1.8l0.1-1.5H407.6z M406.5,148.6v-4.4
			c0-2.1-1.3-3.3-2.9-3.3c-1.9,0-3.2,1.2-3.2,3.6v4c0,2.2,1.3,3.4,3.2,3.4C405.4,151.9,406.5,150.7,406.5,148.6z"/>
		<path d="M417,140v1.1c-0.5-0.1-1-0.2-1.6-0.2c-1.9,0-3.3,1.7-3.3,4.3v8h-1.1v-13.1h0.9l0.2,1.6v0.3c0.7-1.4,1.9-2.2,3.5-2.2
			C416.2,139.9,416.7,139.9,417,140z"/>
		<path d="M418.8,149.1v-4.7c0-2.8,1.6-4.5,4.2-4.5c2.5,0,4.2,1.7,4.2,4.5v4.7c0,2.8-1.6,4.5-4.2,4.5
			C420.4,153.5,418.8,151.9,418.8,149.1z M426,149.1v-4.7c0-2.2-1.2-3.4-3.1-3.4c-1.9,0-3.1,1.2-3.1,3.4v4.7c0,2.2,1.2,3.4,3.1,3.4
			C424.8,152.5,426,151.3,426,149.1z"/>
		<path d="M438.1,140.2v13.1h-0.9l-0.2-1.7v-0.2c-0.7,1.4-1.9,2.2-3.5,2.2c-2.1,0-3.4-1.5-3.4-4.9v-8.5h1.1v8.3c0,2.7,0.9,4,2.6,4
			c1.9,0,3.3-1.7,3.3-4.4v-8H438.1z"/>
		<path d="M449.6,144.8v8.5h-1.1v-8.3c0-2.7-0.9-4-2.6-4c-1.9,0-3.3,1.7-3.3,4.4v8h-1.1v-13.1h0.9l0.2,1.7v0.2
			c0.7-1.4,1.9-2.2,3.5-2.2C448.2,139.9,449.6,141.4,449.6,144.8z"/>
		<path d="M460.7,135.2v18.1h-0.9l-0.1-1.4c-0.7,1-1.9,1.6-3.2,1.6c-2.3,0-3.9-1.7-3.9-4.6v-4.5c0-2.9,1.5-4.6,3.9-4.6
			c1.4,0,2.6,0.7,3.3,1.9v-6.7H460.7z M459.7,149.1v-4.3c0-2.4-1.3-3.9-3-3.9c-1.9,0-3,1.2-3,3.6v4.5c0,2.4,1.2,3.6,3.1,3.6
			C458.3,152.5,459.7,151.3,459.7,149.1z"/>
	</g>
</g>
</svg>
