<?xml version="1.0" encoding="utf-8"?>
<!-- Generator: Adobe Illustrator 25.2.1, SVG Export Plug-In . SVG Version: 6.00 Build 0)  -->
<svg version="1.1" id="Layer_1" xmlns="http://www.w3.org/2000/svg" xmlns:xlink="http://www.w3.org/1999/xlink" x="0px" y="0px"
	 viewBox="0 0 2400 1350" style="enable-background:new 0 0 2400 1350;" xml:space="preserve">
<style type="text/css">
	.st0{fill:#FFFFFF;}
	.st1{fill:#F2F3F4;}
	.st2{fill:#75C7EF;}
	.st3{fill:none;stroke:#000000;stroke-width:10;stroke-miterlimit:10;}
</style>
<g>
	<rect x="525" y="-525" transform="matrix(4.489837e-11 -1 1 4.489837e-11 525 1875)" class="st0" width="1350" height="2400"/>
	<g>
		<path class="st1" d="M267.5,295.6c7.3,38.8,67.9,70.9,118.9,168.3c29.9,56.4,58.2,137.3,76.9,246.3
			c44.4,244.2,25.3,489.8,114.2,639.8H1307c414.9-261.4,665.2-805,581.3-1350l-1454,0C366.1,205.3,267.8,243,267.5,295.6z"/>
	</g>
	<polygon class="st2" points="194,1200.3 422,1068.7 194,937 	"/>
	<polygon class="st2" points="2120.5,491.7 1795.5,304.1 2120.5,116.4 	"/>
	<polygon class="st2" points="1288.6,1172.7 315.5,610.8 1288.6,49 	"/>
	<g>
		<path class="st0" d="M947.4,339c88.6,92.8,144.9,203.9,167.8,324.3c54.4,286.2-119.2,507.4-119.2,507.4
			c5.4,4.5,52.2-62.5,55.9-68.1c60.8-93.5,92.2-201.4,95.5-307.7c4.9-163.9-55.2-326.5-169.5-444.8c-7.7-7.9-99.9-92.6-106.4-83.3
			C870.4,268.4,941.8,333.1,947.4,339z"/>
		<path class="st0" d="M164.1,153.2c352.9-188.8,779-61,971.4,273c58.6,101.7,85.6,214.8,85.6,214.8c3.9-0.7-12.8-106.7-69.4-212.2
			C1026.2,194.4,785.6,52.7,528.3,49c-129.8-1.9-254.5,30.7-362.7,93.3C75.8,194.2,38,220.7,164.1,153.2z"/>
	</g>
	<path d="M2400,1066.9c-10.7,0.8-21,1.1-31.7,1.1c-9.3-0.1-18.7-0.4-27.9-1.1l1.5-19.9c8.8,0.6,17.8,1,26.6,1
		c10.2,0.1,21.4-0.3,31.6-1V1066.9z M2400,244.2c-8.9-0.7-17.9-1-26.8-1.1c-10.1-0.1-20.4,0.3-30.5,1l-1.4-19.9
		c10.6-0.8,21.4-1.1,32.1-1c8.8,0.1,17.9,0.4,26.7,1V244.2z M2285,1038.6l-4.3,19.5c-19.5-4.3-38.9-10-57.8-17.1l7-18.7
		C2247.9,1029.1,2266.5,1034.5,2285,1038.6z M2285.9,252.3c-18.6,4-37.2,9.5-55.1,16.1l-7-18.7c18.8-7,38.2-12.7,57.8-16.9
		L2285.9,252.3z M2177.8,998.5l-9.6,17.6c-17.6-9.6-34.7-20.6-50.7-32.6l12-16C2144.7,978.9,2161,989.4,2177.8,998.5z M2178.5,292.2
		c-16.8,9.1-33.1,19.5-48.4,30.9l-11.9-16c16.1-12,33.1-22.9,50.8-32.5L2178.5,292.2z M2086.1,929.9L2072,944
		c-14.1-14.2-27.4-29.5-39.4-45.6l16-12C2060,901.8,2072.7,916.4,2086.1,929.9z M2086.7,360.6c-13.5,13.5-26.2,28.1-37.7,43.3
		l-16-12c12-16,25.3-31.3,39.5-45.5L2086.7,360.6z M2017.6,838.1l-17.6,9.6c-9.6-17.6-18-36-25-54.8l18.7-7
		C2000.5,803.8,2008.5,821.4,2017.6,838.1z M2018,452.2c-9.1,16.7-17.2,34.2-23.9,52.2l-0.2,0.4l-18.7-7l0.2-0.4
		c7.1-18.8,15.5-37.3,25.1-54.8L2018,452.2z M1977.6,730.8l-19.5,4.3c-4.3-19.6-7.2-39.7-8.6-59.6l19.9-1.4
		C1970.8,693,1973.6,712.2,1977.6,730.8z M1977.7,559.9c-4.1,18.7-6.9,37.8-8.2,56.8l-19.9-1.4c1.4-20,4.4-40,8.7-59.6L1977.7,559.9
		z"/>
	<g>
		<circle class="st3" cx="1753" cy="1220" r="21.5"/>
		<circle class="st3" cx="1753" cy="1140" r="21.5"/>
		<circle class="st3" cx="1833" cy="1220" r="21.5"/>
		<circle class="st3" cx="1833" cy="1140" r="21.5"/>
		<circle class="st3" cx="1913" cy="1220" r="21.5"/>
		<circle class="st3" cx="1913" cy="1140" r="21.5"/>
	</g>
	<g>
		<g>
			<path d="M857.2,872.7c0,7.1-2.8,13.7-7.8,18.7c-5,5-11.7,7.8-18.7,7.8s-13.7-2.8-18.7-7.8c-5-5-7.8-11.7-7.8-18.7
				s2.8-13.7,7.8-18.7c10.3-10.3,27.1-10.3,37.5,0C854.5,858.9,857.2,865.6,857.2,872.7z M814.2,872.7c0,4.4,1.7,8.6,4.8,11.7
				s7.3,4.8,11.7,4.8s8.6-1.7,11.7-4.8s4.8-7.3,4.8-11.7s-1.7-8.6-4.8-11.7c-6.4-6.4-16.9-6.4-23.3,0
				C816,864.1,814.2,868.3,814.2,872.7z"/>
			<path d="M800.7,929.2c0,7.1-2.8,13.7-7.8,18.7c-5,5-11.7,7.8-18.7,7.8s-13.7-2.8-18.7-7.8c-5-5-7.8-11.7-7.8-18.7
				s2.8-13.7,7.8-18.7c5-5,11.7-7.8,18.7-7.8s13.7,2.8,18.7,7.8C797.9,915.5,800.7,922.1,800.7,929.2z M757.7,929.2
				c0,4.4,1.7,8.5,4.8,11.7c3.1,3.1,7.3,4.8,11.7,4.8s8.6-1.7,11.7-4.8c3.1-3.1,4.8-7.3,4.8-11.7c0-4.4-1.7-8.6-4.8-11.7
				s-7.3-4.8-11.7-4.8s-8.6,1.7-11.7,4.8S757.7,924.8,757.7,929.2z"/>
			<path d="M744.1,985.8c0,7.1-2.8,13.7-7.8,18.7c-5,5-11.7,7.8-18.7,7.8c-7.1,0-13.7-2.8-18.7-7.8c-5-5-7.8-11.7-7.8-18.7
				s2.8-13.7,7.8-18.7c5-5,11.7-7.8,18.7-7.8c7.1,0,13.7,2.8,18.7,7.8C741.3,972.1,744.1,978.7,744.1,985.8z M701.1,985.8
				c0,4.4,1.7,8.6,4.8,11.7c3.1,3.1,7.3,4.8,11.7,4.8c4.4,0,8.5-1.7,11.7-4.8c3.1-3.1,4.8-7.3,4.8-11.7s-1.7-8.6-4.8-11.7
				c-3.1-3.1-7.3-4.8-11.7-4.8c-4.4,0-8.6,1.7-11.7,4.8C702.8,977.2,701.1,981.4,701.1,985.8z"/>
			<path d="M687.5,929.2c0,7.1-2.8,13.7-7.8,18.7c-10.3,10.3-27.1,10.3-37.5,0c-5-5-7.8-11.7-7.8-18.7s2.8-13.7,7.8-18.7
				c10.3-10.3,27.1-10.3,37.5,0C684.8,915.5,687.5,922.1,687.5,929.2z M644.5,929.2c0,4.4,1.7,8.6,4.8,11.7c6.4,6.4,16.9,6.4,23.3,0
				c3.1-3.1,4.8-7.3,4.8-11.7c0-4.4-1.7-8.6-4.8-11.7c-6.4-6.4-16.9-6.4-23.3,0C646.2,920.7,644.5,924.8,644.5,929.2z"/>
			<path d="M631,872.7c0,7.1-2.8,13.7-7.8,18.7c-10.3,10.3-27.1,10.3-37.5,0c-5-5-7.8-11.7-7.8-18.7s2.8-13.7,7.8-18.7
				c10.3-10.3,27.1-10.3,37.5,0C628.2,858.9,631,865.6,631,872.7z M588,872.7c0,4.4,1.7,8.6,4.8,11.7c6.4,6.4,16.9,6.4,23.3,0
				c3.1-3.1,4.8-7.3,4.8-11.7s-1.7-8.6-4.8-11.7c-6.4-6.4-16.9-6.4-23.3,0C589.7,864.1,588,868.3,588,872.7z"/>
		</g>
		<g>
			<path d="M857.2,703c0,7.1-2.8,13.7-7.8,18.7c-5,5-11.7,7.8-18.7,7.8s-13.7-2.8-18.7-7.8c-5-5-7.8-11.7-7.8-18.7
				s2.8-13.7,7.8-18.7c5-5,11.7-7.8,18.7-7.8s13.7,2.8,18.7,7.8C854.5,689.2,857.2,695.9,857.2,703z M814.2,703
				c0,4.4,1.7,8.6,4.8,11.7s7.3,4.8,11.7,4.8s8.6-1.7,11.7-4.8s4.8-7.3,4.8-11.7c0-4.4-1.7-8.5-4.8-11.7c-3.1-3.1-7.3-4.8-11.7-4.8
				s-8.6,1.7-11.7,4.8C816,694.4,814.2,698.5,814.2,703z"/>
			<path d="M800.7,759.5c0,7.1-2.8,13.7-7.8,18.7c-10.3,10.3-27.1,10.3-37.5,0c-5-5-7.8-11.7-7.8-18.7s2.8-13.7,7.8-18.7
				c5-5,11.7-7.8,18.7-7.8s13.7,2.8,18.7,7.8C797.9,745.8,800.7,752.4,800.7,759.5z M757.7,759.5c0,4.4,1.7,8.6,4.8,11.7
				c6.4,6.4,16.9,6.4,23.3,0c3.1-3.1,4.8-7.3,4.8-11.7s-1.7-8.6-4.8-11.7s-7.3-4.8-11.7-4.8s-8.6,1.7-11.7,4.8
				S757.7,755.1,757.7,759.5z"/>
			<path d="M744.1,816.1c0,7.1-2.8,13.7-7.8,18.7c-5,5-11.7,7.8-18.7,7.8c-7.1,0-13.7-2.8-18.7-7.8c-5-5-7.8-11.7-7.8-18.7
				s2.8-13.7,7.8-18.7c10.3-10.3,27.1-10.3,37.5,0C741.3,802.4,744.1,809,744.1,816.1z M701.1,816.1c0,4.4,1.7,8.6,4.8,11.7
				c3.1,3.1,7.3,4.8,11.7,4.8c4.4,0,8.5-1.7,11.7-4.8c3.1-3.1,4.8-7.3,4.8-11.7s-1.7-8.6-4.8-11.7c-6.4-6.4-16.9-6.4-23.3,0
				C702.8,807.5,701.1,811.7,701.1,816.1z"/>
			<path d="M687.5,759.5c0,7.1-2.8,13.7-7.8,18.7c-10.3,10.3-27.1,10.3-37.5,0c-5-5-7.8-11.7-7.8-18.7s2.8-13.7,7.8-18.7
				c10.3-10.3,27.1-10.3,37.5,0C684.8,745.8,687.5,752.4,687.5,759.5z M644.5,759.5c0,4.4,1.7,8.6,4.8,11.7c6.4,6.4,16.9,6.4,23.3,0
				c3.1-3.1,4.8-7.3,4.8-11.7s-1.7-8.6-4.8-11.7c-6.4-6.4-16.9-6.4-23.3,0C646.2,751,644.5,755.1,644.5,759.5z"/>
			<path d="M631,703c0,7.1-2.8,13.7-7.8,18.7c-10.3,10.3-27.1,10.3-37.5,0c-5-5-7.8-11.7-7.8-18.7s2.8-13.7,7.8-18.7
				c10.3-10.3,27.1-10.3,37.5,0C628.2,689.2,631,695.9,631,703z M588,703c0,4.4,1.7,8.6,4.8,11.7c6.4,6.4,16.9,6.4,23.3,0
				c3.1-3.1,4.8-7.3,4.8-11.7c0-4.4-1.7-8.6-4.8-11.7c-6.4-6.4-16.9-6.4-23.3,0C589.7,694.4,588,698.5,588,703z"/>
		</g>
		<g>
			<path d="M857.2,1042.4c0,7.1-2.8,13.7-7.8,18.7c-10.3,10.3-27.1,10.3-37.5,0c-5-5-7.8-11.7-7.8-18.7s2.8-13.7,7.8-18.7
				c5-5,11.7-7.8,18.7-7.8c7.1,0,13.7,2.8,18.7,7.8C854.5,1028.6,857.2,1035.3,857.2,1042.4z M814.2,1042.4c0,4.4,1.7,8.6,4.8,11.7
				c6.4,6.4,16.9,6.4,23.3,0c3.1-3.1,4.8-7.3,4.8-11.7s-1.7-8.6-4.8-11.7c-3.1-3.1-7.3-4.8-11.7-4.8c-4.4,0-8.6,1.7-11.7,4.8
				C816,1033.8,814.2,1038,814.2,1042.4z"/>
			<path d="M800.7,1098.9c0,7.1-2.8,13.7-7.8,18.7c-5,5-11.7,7.8-18.7,7.8s-13.7-2.8-18.7-7.8c-5-5-7.8-11.7-7.8-18.7
				s2.8-13.7,7.8-18.7c10.3-10.3,27.1-10.3,37.5,0C797.9,1085.2,800.7,1091.9,800.7,1098.9z M757.7,1098.9c0,4.4,1.7,8.6,4.8,11.7
				s7.3,4.8,11.7,4.8s8.6-1.7,11.7-4.8s4.8-7.3,4.8-11.7s-1.7-8.6-4.8-11.7c-6.4-6.4-16.9-6.4-23.3,0
				C759.4,1090.4,757.7,1094.5,757.7,1098.9z"/>
			<path d="M744.1,1155.5c0,7.1-2.8,13.7-7.8,18.7c-5,5-11.7,7.8-18.7,7.8s-13.7-2.8-18.7-7.8c-5-5-7.8-11.7-7.8-18.7
				c0-7.1,2.8-13.7,7.8-18.7c5-5,11.7-7.8,18.7-7.8s13.7,2.8,18.7,7.8C741.3,1141.8,744.1,1148.4,744.1,1155.5z M701.1,1155.5
				c0,4.4,1.7,8.6,4.8,11.7c3.1,3.1,7.3,4.8,11.7,4.8s8.6-1.7,11.7-4.8c3.1-3.1,4.8-7.3,4.8-11.7c0-4.4-1.7-8.6-4.8-11.7
				c-3.1-3.1-7.3-4.8-11.7-4.8s-8.6,1.7-11.7,4.8C702.8,1147,701.1,1151.1,701.1,1155.5z"/>
			<path d="M687.5,1098.9c0,7.1-2.8,13.7-7.8,18.7c-5,5-11.7,7.8-18.7,7.8s-13.7-2.8-18.7-7.8c-5-5-7.8-11.7-7.8-18.7
				s2.8-13.7,7.8-18.7c10.3-10.3,27.1-10.3,37.5,0C684.8,1085.2,687.5,1091.9,687.5,1098.9z M644.5,1098.9c0,4.4,1.7,8.6,4.8,11.7
				c3.1,3.1,7.3,4.8,11.7,4.8c4.4,0,8.6-1.7,11.7-4.8s4.8-7.3,4.8-11.7s-1.7-8.6-4.8-11.7c-6.4-6.4-16.9-6.4-23.3,0
				C646.2,1090.4,644.5,1094.5,644.5,1098.9z"/>
			<path d="M631,1042.4c0,7.1-2.8,13.7-7.8,18.7c-10.3,10.3-27.1,10.3-37.5,0c-5-5-7.8-11.7-7.8-18.7s2.8-13.7,7.8-18.7
				c10.3-10.3,27.1-10.3,37.5,0C628.2,1028.6,631,1035.3,631,1042.4z M588,1042.4c0,4.4,1.7,8.6,4.8,11.7c6.4,6.4,16.9,6.4,23.3,0
				c3.1-3.1,4.8-7.3,4.8-11.7s-1.7-8.6-4.8-11.7c-6.4-6.4-16.9-6.4-23.3,0C589.7,1033.8,588,1038,588,1042.4z"/>
		</g>
	</g>
	<path d="M1751.2,949c-102.2,43.2-194.1,105.2-272.9,184c-64.2,64.2-117.2,137-158,217h11.6c141.5-272.2,426.2-458.5,753.5-458.5
		c111.1,0,217.3,21.5,314.6,60.5v-11c-100.1-39.5-205.8-59.5-314.6-59.5C1969.5,881.5,1857,904.2,1751.2,949z"/>
	<path class="st0" d="M0,321.8C134,167.6,321.3,88,511.6,86.8c18.4-0.1-36.7,0.2,0,0c169.4-0.5,334.8,61.7,460.9,175.1
		c114.8,103.2,192.9,244.9,216.8,397.6c19.1,122.4-3.2,234.1-8.3,233.2c0,0,11.9-113.2-5.9-218.1c-42-247-214.5-443.8-437.7-522.9
		C476.3,59.2,178,141.3,0,353.2L0,321.8z"/>
	<path class="st0" d="M0,419.1C88.2,288.3,226.9,195,381.1,161.9c112.4-24.1,233.7-16.8,344.3,24.9c7.3,2.8,90,38.1,87.2,43.4
		c-0.3,0.5-78.5-32.2-85.6-34.6c-117.8-40.5-239.2-44.7-349.8-19.2C224.1,211.6,89.1,305.3,0,434.2C0,429.2,0,424.1,0,419.1z"/>
	<path class="st0" d="M0,1207.2c47.1,56.1,102.9,103.8,164.8,142.8c-12.3,0-39.9,0-39.9,0c-25.5-16.2-80.5-59.7-124.9-109L0,1207.2z
		"/>
	<path class="st0" d="M1138.3,1057.4c-21.5,50.2-49.4,97.6-82.6,140.9c-48,62.6-97.4,105-159.6,151.7c0,0-26.2,0-36.8,0
		c80.1-48.6,150-113.6,204.5-189.8c26.6-37.3,49.1-77.1,68.5-118.6c4-8.7,39.2-101.8,40.3-101.6
		C1181,942,1142.2,1048.2,1138.3,1057.4z"/>
	<path class="st0" d="M947.8,1350c95-73.2,173.5-170.2,222.1-280.2c27.9-63.3,47.6-129.5,57.4-198c10.8-75.7,7.3-162,7.3-162
		c2.7-0.2,11.6,79.4,0.1,167.9c-9,68.9-28.6,135.4-56.4,199c-54.4,116.9-120.5,196.1-215.5,273.3H947.8z"/>
	<path class="st0" d="M0,1174.9c0-5.5,0-11,0-16.6c51.5,71,120.6,129.9,120.6,129.9C118.6,1290.7,54.8,1244,0,1174.9z"/>
	<g>
		<path d="M188.5,481.7c0,14.6-11.9,26.5-26.5,26.5s-26.5-11.9-26.5-26.5s11.9-26.5,26.5-26.5S188.5,467.1,188.5,481.7z
			 M145.5,481.7c0,9.1,7.4,16.5,16.5,16.5s16.5-7.4,16.5-16.5c0-9.1-7.4-16.5-16.5-16.5S145.5,472.6,145.5,481.7z"/>
		<path d="M188.5,401.7c0,14.6-11.9,26.5-26.5,26.5s-26.5-11.9-26.5-26.5s11.9-26.5,26.5-26.5S188.5,387.1,188.5,401.7z
			 M145.5,401.7c0,9.1,7.4,16.5,16.5,16.5s16.5-7.4,16.5-16.5c0-9.1-7.4-16.5-16.5-16.5S145.5,392.6,145.5,401.7z"/>
		<path d="M188.5,321.7c0,14.6-11.9,26.5-26.5,26.5s-26.5-11.9-26.5-26.5s11.9-26.5,26.5-26.5S188.5,307.1,188.5,321.7z
			 M145.5,321.7c0,9.1,7.4,16.5,16.5,16.5s16.5-7.4,16.5-16.5c0-9.1-7.4-16.5-16.5-16.5S145.5,312.6,145.5,321.7z"/>
		<path d="M188.5,241.7c0,14.6-11.9,26.5-26.5,26.5s-26.5-11.9-26.5-26.5s11.9-26.5,26.5-26.5S188.5,227.1,188.5,241.7z
			 M145.5,241.7c0,9.1,7.4,16.5,16.5,16.5s16.5-7.4,16.5-16.5c0-9.1-7.4-16.5-16.5-16.5S145.5,232.6,145.5,241.7z"/>
		<path d="M188.5,161.7c0,14.6-11.9,26.5-26.5,26.5s-26.5-11.9-26.5-26.5s11.9-26.5,26.5-26.5S188.5,147.1,188.5,161.7z
			 M145.5,161.7c0,9.1,7.4,16.5,16.5,16.5s16.5-7.4,16.5-16.5c0-9.1-7.4-16.5-16.5-16.5S145.5,152.6,145.5,161.7z"/>
		<path d="M268.5,441.7c0,14.6-11.9,26.5-26.5,26.5s-26.5-11.9-26.5-26.5s11.9-26.5,26.5-26.5S268.5,427.1,268.5,441.7z
			 M225.5,441.7c0,9.1,7.4,16.5,16.5,16.5s16.5-7.4,16.5-16.5c0-9.1-7.4-16.5-16.5-16.5S225.5,432.6,225.5,441.7z"/>
		<path d="M268.5,361.7c0,14.6-11.9,26.5-26.5,26.5s-26.5-11.9-26.5-26.5s11.9-26.5,26.5-26.5S268.5,347.1,268.5,361.7z
			 M225.5,361.7c0,9.1,7.4,16.5,16.5,16.5s16.5-7.4,16.5-16.5c0-9.1-7.4-16.5-16.5-16.5S225.5,352.6,225.5,361.7z"/>
		<path d="M268.5,281.7c0,14.6-11.9,26.5-26.5,26.5s-26.5-11.9-26.5-26.5s11.9-26.5,26.5-26.5S268.5,267.1,268.5,281.7z
			 M225.5,281.7c0,9.1,7.4,16.5,16.5,16.5s16.5-7.4,16.5-16.5c0-9.1-7.4-16.5-16.5-16.5S225.5,272.6,225.5,281.7z"/>
		<path d="M268.5,201.7c0,14.6-11.9,26.5-26.5,26.5s-26.5-11.9-26.5-26.5s11.9-26.5,26.5-26.5S268.5,187.1,268.5,201.7z
			 M225.5,201.7c0,9.1,7.4,16.5,16.5,16.5s16.5-7.4,16.5-16.5c0-9.1-7.4-16.5-16.5-16.5S225.5,192.6,225.5,201.7z"/>
		<path d="M268.5,121.7c0,14.6-11.9,26.5-26.5,26.5s-26.5-11.9-26.5-26.5s11.9-26.5,26.5-26.5S268.5,107.1,268.5,121.7z
			 M225.5,121.7c0,9.1,7.4,16.5,16.5,16.5s16.5-7.4,16.5-16.5c0-9.1-7.4-16.5-16.5-16.5S225.5,112.6,225.5,121.7z"/>
	</g>
</g>
<g>
	<g>
		<path d="M1269.6,484.2H1233l-6.7,27.4h-15.5l32.4-126h16l32.4,126h-15.5L1269.6,484.2z M1266.3,470.6l-10.3-42.7
			c-2-8.1-3.8-18.7-4.5-23.6h-0.5c-0.7,4.9-2.5,15.5-4.5,23.6l-10.3,42.7H1266.3z"/>
		<path d="M1376.8,476.3c0,22.5-13.9,35.3-36,35.3h-34.4v-126h32c20.7,0,33.5,12.4,33.5,33.5c0,13.7-5.6,23.6-14.2,27.5
			C1369.6,450.4,1376.8,461.2,1376.8,476.3z M1321.2,399.5v40.9h16.6c12.8,0,19.1-7.2,19.1-20.9s-6.3-20-19.4-20H1321.2z
			 M1361.9,476.3c0-14.6-9.4-22.1-23.6-22.1h-17.1v43.6h18.4C1354.5,497.7,1361.9,491.1,1361.9,476.3z"/>
		<path d="M1388.5,478.1h14.9c0.4,14.2,8.5,21.6,20.9,21.6c13.7,0,20.3-8.5,20.3-20.3c0-27-54.2-27.7-54.2-64.8
			c0-17.8,13.3-31.3,33.7-31.3c20.7,0,33.3,13.9,34,34.6h-14.9c-0.5-13.9-7.9-20.3-18.9-20.3c-11.9,0-18.9,6.8-18.9,17.3
			c0,26.8,54.4,26.3,54.4,64.8c0,18-12.4,34.4-35.3,34.4C1402.9,513.9,1388.9,500.1,1388.5,478.1z"/>
		<path d="M1537.8,399.5h-27v112.1h-14.9V399.5h-27v-13.9h68.9V399.5z"/>
		<path d="M1581,464.1h-12.8v47.5h-14.8v-126h30.8c23.8,0,36.9,14,36.9,38.2c0,20.7-9.2,34.4-25,38.9l29.2,49h-16.7L1581,464.1z
			 M1568.2,450.2h15.8c14.6,0,22.1-9.2,22.1-25.9c0-16.4-7.6-24.8-22-24.8h-16V450.2z"/>
		<path d="M1689.5,484.2H1653l-6.7,27.4h-15.5l32.4-126h16l32.4,126h-15.5L1689.5,484.2z M1686.3,470.6l-10.3-42.7
			c-2-8.1-3.8-18.7-4.5-23.6h-0.5c-0.7,4.9-2.5,15.5-4.5,23.6l-10.3,42.7H1686.3z"/>
		<path d="M1720.5,475.2V422c0-24.8,14-38.7,35.1-38.7c21.6,0,34.9,13.3,36.2,37.6h-14.6c-1.1-16.2-8.6-23.8-21.8-23.8
			c-12.1,0-20.2,7.9-20.2,24.8v53.3c0,16.7,8.5,24.7,20.7,24.7c13.3,0,20.7-7.7,22.1-23.6h14.6c-1.4,23.9-14.8,37.4-36.7,37.4
			C1734.7,513.8,1720.5,500.1,1720.5,475.2z"/>
		<path d="M1869.9,399.5h-27v112.1h-14.9V399.5h-27v-13.9h68.9V399.5z"/>
	</g>
	<g>
		<path d="M1460.5,578.8v17.8c0,11.8-6.6,18.5-15.7,18.5c-5.4,0-10.1-2.6-12.8-6.6l-0.5,5.5h-3.6v-72.3h4.2v26.6
			c2.5-5.1,7.4-7.7,13-7.7C1454.5,560.6,1460.5,567.3,1460.5,578.8z M1456.2,578.8c0-9.4-4.5-14.2-12.1-14.2c-6.9,0-12,5.7-12,15.4
			v17.2c0,8.8,5.3,13.9,11.8,13.9c7.4,0,12.3-4.9,12.3-14.5V578.8z"/>
		<path d="M1503.3,577.1V614h-3.8l-0.4-5.7c-2.5,4.2-6.8,6.8-12.9,6.8c-9.2,0-15.6-5.8-15.6-15.9c0-9.8,6.3-15.4,17.6-15.4h10.8
			v-6.6c0-8-3.9-12.5-11-12.5c-6.7,0-11.2,4.1-11.4,10.1h-4.4c0.5-8.4,6.5-14.2,15.9-14.2C1497.6,560.6,1503.3,566.8,1503.3,577.1z
			 M1499,598.2v-10.4h-10.9c-8.6,0-13.1,4.1-13.1,11.5c0,7.5,4.7,11.6,11.8,11.6C1494.6,610.9,1499,606.2,1499,598.2z"/>
		<path d="M1516,597.3v-19c0-11.1,6.2-17.7,15.9-17.7c10.2,0,16.4,6.6,16.6,18h-4.4c-0.2-9-4.6-13.8-12.2-13.8
			c-7.2,0-11.6,4.8-11.6,13.5v19c0,8.7,4.5,13.5,11.7,13.5c7.6,0,12.1-4.8,12.3-13.9h4.3c-0.1,11.4-6.4,18.1-16.6,18.1
			C1522.2,615,1516,608.3,1516,597.3z"/>
		<path d="M1569,586.7l-5.2,5.7V614h-4.3v-72.3h4.3v44.8l21.7-24.8h5.6l-19.1,21.6l21.3,30.7h-5.2L1569,586.7z"/>
		<path d="M1630.6,561.7v55.7c0,9.7-6.1,15.8-15.6,15.8c-9.7,0-15.8-5.8-16.3-14.7h4.2c0.6,6.7,4.8,10.6,12.1,10.6
			c7,0,11.2-4.2,11.2-11.7v-10.8c-2.6,3.9-7,6.2-12,6.2c-9.5,0-16.3-6.7-16.3-17.8v-15.9c0-11.8,6.7-18.5,16.1-18.5
			c5.3,0,9.7,2.5,12.4,7.1l0.4-6H1630.6z M1626.2,595.5v-17.6c0-8.4-5.1-13.2-11.4-13.2c-7.5,0-12.6,4.8-12.6,14.4V595
			c0,8.8,5.1,13.7,12.6,13.7C1621.6,608.7,1626.2,603.8,1626.2,595.5z"/>
		<path d="M1668.2,561.2v4.6c-1.9-0.6-3.9-0.9-6.3-0.9c-7.7,0-13.1,6.7-13.1,17.2v31.8h-4.3v-52.2h3.7l0.6,6.6v1.2
			c2.8-5.4,7.6-8.9,14-8.9C1665,560.6,1666.8,560.8,1668.2,561.2z"/>
		<path d="M1675.1,597.2v-18.7c0-11.3,6.4-17.9,16.6-17.9c10.1,0,16.6,6.6,16.6,17.9v18.7c0,11.3-6.5,17.9-16.6,17.9
			C1681.5,615.1,1675.1,608.5,1675.1,597.2z M1703.9,597.2v-18.7c0-8.9-4.6-13.7-12.2-13.7c-7.6,0-12.3,4.8-12.3,13.7v18.7
			c0,8.9,4.7,13.7,12.3,13.7C1699.3,610.9,1703.9,606.1,1703.9,597.2z"/>
		<path d="M1752.3,561.7V614h-3.7l-0.6-6.8v-0.9c-2.8,5.4-7.6,8.8-14.1,8.8c-8.3,0-13.6-6-13.6-19.6v-33.8h4.3v33.2
			c0,10.9,3.4,16.1,10.3,16.1c7.7,0,13.1-6.7,13.1-17.4v-31.9H1752.3z"/>
		<path d="M1798.3,580.2V614h-4.3v-33.2c0-10.9-3.4-16.1-10.3-16.1c-7.7,0-13.1,6.7-13.1,17.4V614h-4.3v-52.3h3.7l0.6,6.8v0.9
			c2.8-5.4,7.6-8.8,14.1-8.8C1793,560.6,1798.3,566.6,1798.3,580.2z"/>
		<path d="M1842.9,541.7V614h-3.6l-0.5-5.5c-2.7,4-7.4,6.6-12.8,6.6c-9.1,0-15.7-6.7-15.7-18.5v-17.8c0-11.5,6-18.2,15.4-18.2
			c5.6,0,10.5,2.6,13,7.7v-26.6H1842.9z M1838.7,597.2V580c0-9.7-5.2-15.4-12-15.4c-7.6,0-12.1,4.8-12.1,14.2v17.8
			c0,9.6,4.9,14.5,12.3,14.5C1833.4,611.1,1838.7,606,1838.7,597.2z"/>
	</g>
</g>
</svg>
