<?xml version="1.0" encoding="utf-8"?>
<!-- Generator: Adobe Illustrator 25.2.1, SVG Export Plug-In . SVG Version: 6.00 Build 0)  -->
<svg version="1.1" id="Layer_1" xmlns="http://www.w3.org/2000/svg" xmlns:xlink="http://www.w3.org/1999/xlink" x="0px" y="0px"
	 viewBox="0 0 338 600" style="enable-background:new 0 0 338 600;" xml:space="preserve">
<style type="text/css">
	.st0{fill:#FFFFFF;}
	.st1{fill:#F2F3F4;}
	.st2{fill:#75C7EF;}
</style>
<g>
	<rect x="-506.1" y="-900.1" class="st0" width="1350" height="2400"/>
	<g>
		<path class="st1" d="M339.9-766c-125-84.1-239.3-107-327.4-80.8C-124.6-807.9-230-670-154.7-351.8
			C-133.7-265,129.5,719,365.1,761.5c173.6,27.8,338.3-360.3,478.7-476.3v-585.8C682.1-464.4,504.3-660.6,339.9-766z"/>
	</g>
	<g>
		<rect x="-506.1" y="-230.6" class="st2" width="960" height="960"/>
	</g>
	<g>
		<path d="M479.8-383.1c-14.6,0-26.5-11.9-26.5-26.5s11.9-26.5,26.5-26.5s26.5,11.9,26.5,26.5S494.4-383.1,479.8-383.1z
			 M479.8-426.1c-9.1,0-16.5,7.4-16.5,16.5s7.4,16.5,16.5,16.5c9.1,0,16.5-7.4,16.5-16.5S488.9-426.1,479.8-426.1z"/>
		<path d="M559.8-383.1c-14.6,0-26.5-11.9-26.5-26.5s11.9-26.5,26.5-26.5s26.5,11.9,26.5,26.5S574.4-383.1,559.8-383.1z
			 M559.8-426.1c-9.1,0-16.5,7.4-16.5,16.5s7.4,16.5,16.5,16.5c9.1,0,16.5-7.4,16.5-16.5S568.9-426.1,559.8-426.1z"/>
		<path d="M639.8-383.1c-14.6,0-26.5-11.9-26.5-26.5s11.9-26.5,26.5-26.5s26.5,11.9,26.5,26.5S654.4-383.1,639.8-383.1z
			 M639.8-426.1c-9.1,0-16.5,7.4-16.5,16.5s7.4,16.5,16.5,16.5c9.1,0,16.5-7.4,16.5-16.5S648.9-426.1,639.8-426.1z"/>
		<path d="M719.8-383.1c-14.6,0-26.5-11.9-26.5-26.5s11.9-26.5,26.5-26.5s26.5,11.9,26.5,26.5S734.4-383.1,719.8-383.1z
			 M719.8-426.1c-9.1,0-16.5,7.4-16.5,16.5s7.4,16.5,16.5,16.5c9.1,0,16.5-7.4,16.5-16.5S728.9-426.1,719.8-426.1z"/>
		<path d="M799.8-383.1c-14.6,0-26.5-11.9-26.5-26.5s11.9-26.5,26.5-26.5s26.5,11.9,26.5,26.5S814.4-383.1,799.8-383.1z
			 M799.8-426.1c-9.1,0-16.5,7.4-16.5,16.5s7.4,16.5,16.5,16.5c9.1,0,16.5-7.4,16.5-16.5S808.9-426.1,799.8-426.1z"/>
		<path d="M479.8-303.1c-14.6,0-26.5-11.9-26.5-26.5s11.9-26.5,26.5-26.5s26.5,11.9,26.5,26.5S494.4-303.1,479.8-303.1z
			 M479.8-346.1c-9.1,0-16.5,7.4-16.5,16.5s7.4,16.5,16.5,16.5c9.1,0,16.5-7.4,16.5-16.5S488.9-346.1,479.8-346.1z"/>
		<path d="M559.8-303.1c-14.6,0-26.5-11.9-26.5-26.5s11.9-26.5,26.5-26.5s26.5,11.9,26.5,26.5S574.4-303.1,559.8-303.1z
			 M559.8-346.1c-9.1,0-16.5,7.4-16.5,16.5s7.4,16.5,16.5,16.5c9.1,0,16.5-7.4,16.5-16.5S568.9-346.1,559.8-346.1z"/>
		<path d="M639.8-303.1c-14.6,0-26.5-11.9-26.5-26.5s11.9-26.5,26.5-26.5s26.5,11.9,26.5,26.5S654.4-303.1,639.8-303.1z
			 M639.8-346.1c-9.1,0-16.5,7.4-16.5,16.5s7.4,16.5,16.5,16.5c9.1,0,16.5-7.4,16.5-16.5S648.9-346.1,639.8-346.1z"/>
		<path d="M719.8-303.1c-14.6,0-26.5-11.9-26.5-26.5s11.9-26.5,26.5-26.5s26.5,11.9,26.5,26.5S734.4-303.1,719.8-303.1z
			 M719.8-346.1c-9.1,0-16.5,7.4-16.5,16.5s7.4,16.5,16.5,16.5c9.1,0,16.5-7.4,16.5-16.5S728.9-346.1,719.8-346.1z"/>
		<path d="M799.8-303.1c-14.6,0-26.5-11.9-26.5-26.5s11.9-26.5,26.5-26.5s26.5,11.9,26.5,26.5S814.4-303.1,799.8-303.1z
			 M799.8-346.1c-9.1,0-16.5,7.4-16.5,16.5s7.4,16.5,16.5,16.5c9.1,0,16.5-7.4,16.5-16.5S808.9-346.1,799.8-346.1z"/>
	</g>
	<g>
		<path d="M-53.7-575.1c-14.6,0-26.5-11.9-26.5-26.5s11.9-26.5,26.5-26.5s26.5,11.9,26.5,26.5S-39.1-575.1-53.7-575.1z M-53.7-618.1
			c-9.1,0-16.5,7.4-16.5,16.5s7.4,16.5,16.5,16.5c9.1,0,16.5-7.4,16.5-16.5S-44.6-618.1-53.7-618.1z"/>
		<path d="M26.3-575.1c-14.6,0-26.5-11.9-26.5-26.5s11.9-26.5,26.5-26.5s26.5,11.9,26.5,26.5S40.9-575.1,26.3-575.1z M26.3-618.1
			c-9.1,0-16.5,7.4-16.5,16.5s7.4,16.5,16.5,16.5c9.1,0,16.5-7.4,16.5-16.5S35.4-618.1,26.3-618.1z"/>
		<path d="M-53.7-495.1c-14.6,0-26.5-11.9-26.5-26.5c0-14.6,11.9-26.5,26.5-26.5s26.5,11.9,26.5,26.5
			C-27.2-506.9-39.1-495.1-53.7-495.1z M-53.7-538.1c-9.1,0-16.5,7.4-16.5,16.5s7.4,16.5,16.5,16.5c9.1,0,16.5-7.4,16.5-16.5
			S-44.6-538.1-53.7-538.1z"/>
		<path d="M26.3-495.1c-14.6,0-26.5-11.9-26.5-26.5c0-14.6,11.9-26.5,26.5-26.5s26.5,11.9,26.5,26.5
			C52.8-506.9,40.9-495.1,26.3-495.1z M26.3-538.1c-9.1,0-16.5,7.4-16.5,16.5s7.4,16.5,16.5,16.5c9.1,0,16.5-7.4,16.5-16.5
			S35.4-538.1,26.3-538.1z"/>
		<path d="M106.3-415.1c-14.6,0-26.5-11.9-26.5-26.5s11.9-26.5,26.5-26.5s26.5,11.9,26.5,26.5S120.9-415.1,106.3-415.1z
			 M106.3-458.1c-9.1,0-16.5,7.4-16.5,16.5s7.4,16.5,16.5,16.5c9.1,0,16.5-7.4,16.5-16.5S115.4-458.1,106.3-458.1z"/>
		<path d="M186.3-415.1c-14.6,0-26.5-11.9-26.5-26.5s11.9-26.5,26.5-26.5s26.5,11.9,26.5,26.5S200.9-415.1,186.3-415.1z
			 M186.3-458.1c-9.1,0-16.5,7.4-16.5,16.5s7.4,16.5,16.5,16.5c9.1,0,16.5-7.4,16.5-16.5S195.4-458.1,186.3-458.1z"/>
		<path d="M106.3-335.1c-14.6,0-26.5-11.9-26.5-26.5s11.9-26.5,26.5-26.5s26.5,11.9,26.5,26.5S120.9-335.1,106.3-335.1z
			 M106.3-378.1c-9.1,0-16.5,7.4-16.5,16.5s7.4,16.5,16.5,16.5c9.1,0,16.5-7.4,16.5-16.5S115.4-378.1,106.3-378.1z"/>
		<path d="M186.3-335.1c-14.6,0-26.5-11.9-26.5-26.5s11.9-26.5,26.5-26.5s26.5,11.9,26.5,26.5S200.9-335.1,186.3-335.1z
			 M186.3-378.1c-9.1,0-16.5,7.4-16.5,16.5s7.4,16.5,16.5,16.5c9.1,0,16.5-7.4,16.5-16.5S195.4-378.1,186.3-378.1z"/>
	</g>
	<g>
		<path class="st0" d="M10.9,256.9c-14.6,0-26.5-11.9-26.5-26.5s11.9-26.5,26.5-26.5s26.5,11.9,26.5,26.5S25.6,256.9,10.9,256.9z
			 M10.9,213.9c-9.1,0-16.5,7.4-16.5,16.5s7.4,16.5,16.5,16.5s16.5-7.4,16.5-16.5S20,213.9,10.9,213.9z"/>
		<path class="st0" d="M90.9,256.9c-14.6,0-26.5-11.9-26.5-26.5s11.9-26.5,26.5-26.5s26.5,11.9,26.5,26.5S105.6,256.9,90.9,256.9z
			 M90.9,213.9c-9.1,0-16.5,7.4-16.5,16.5s7.4,16.5,16.5,16.5s16.5-7.4,16.5-16.5S100,213.9,90.9,213.9z"/>
		<path class="st0" d="M170.9,256.9c-14.6,0-26.5-11.9-26.5-26.5s11.9-26.5,26.5-26.5s26.5,11.9,26.5,26.5S185.6,256.9,170.9,256.9z
			 M170.9,213.9c-9.1,0-16.5,7.4-16.5,16.5s7.4,16.5,16.5,16.5s16.5-7.4,16.5-16.5S180,213.9,170.9,213.9z"/>
		<path class="st0" d="M250.9,256.9c-14.6,0-26.5-11.9-26.5-26.5s11.9-26.5,26.5-26.5s26.5,11.9,26.5,26.5S265.6,256.9,250.9,256.9z
			 M250.9,213.9c-9.1,0-16.5,7.4-16.5,16.5s7.4,16.5,16.5,16.5s16.5-7.4,16.5-16.5S260,213.9,250.9,213.9z"/>
		<path class="st0" d="M10.9,336.9c-14.6,0-26.5-11.9-26.5-26.5s11.9-26.5,26.5-26.5s26.5,11.9,26.5,26.5S25.6,336.9,10.9,336.9z
			 M10.9,293.9c-9.1,0-16.5,7.4-16.5,16.5c0,9.1,7.4,16.5,16.5,16.5s16.5-7.4,16.5-16.5C27.4,301.3,20,293.9,10.9,293.9z"/>
		<path class="st0" d="M90.9,336.9c-14.6,0-26.5-11.9-26.5-26.5s11.9-26.5,26.5-26.5s26.5,11.9,26.5,26.5S105.6,336.9,90.9,336.9z
			 M90.9,293.9c-9.1,0-16.5,7.4-16.5,16.5c0,9.1,7.4,16.5,16.5,16.5s16.5-7.4,16.5-16.5C107.4,301.3,100,293.9,90.9,293.9z"/>
		<path class="st0" d="M170.9,336.9c-14.6,0-26.5-11.9-26.5-26.5s11.9-26.5,26.5-26.5s26.5,11.9,26.5,26.5S185.6,336.9,170.9,336.9z
			 M170.9,293.9c-9.1,0-16.5,7.4-16.5,16.5c0,9.1,7.4,16.5,16.5,16.5s16.5-7.4,16.5-16.5C187.4,301.3,180,293.9,170.9,293.9z"/>
		<path class="st0" d="M10.9,416.9c-14.6,0-26.5-11.9-26.5-26.5s11.9-26.5,26.5-26.5s26.5,11.9,26.5,26.5S25.6,416.9,10.9,416.9z
			 M10.9,373.9c-9.1,0-16.5,7.4-16.5,16.5c0,9.1,7.4,16.5,16.5,16.5s16.5-7.4,16.5-16.5C27.4,381.3,20,373.9,10.9,373.9z"/>
		<path class="st0" d="M90.9,416.9c-14.6,0-26.5-11.9-26.5-26.5s11.9-26.5,26.5-26.5s26.5,11.9,26.5,26.5S105.6,416.9,90.9,416.9z
			 M90.9,373.9c-9.1,0-16.5,7.4-16.5,16.5c0,9.1,7.4,16.5,16.5,16.5s16.5-7.4,16.5-16.5C107.4,381.3,100,373.9,90.9,373.9z"/>
		<path class="st0" d="M10.9,496.9c-14.6,0-26.5-11.9-26.5-26.5s11.9-26.5,26.5-26.5s26.5,11.9,26.5,26.5S25.6,496.9,10.9,496.9z
			 M10.9,453.9c-9.1,0-16.5,7.4-16.5,16.5c0,9.1,7.4,16.5,16.5,16.5s16.5-7.4,16.5-16.5C27.4,461.3,20,453.9,10.9,453.9z"/>
	</g>
	<polygon class="st2" points="295.9,1353.4 380.5,1499.9 586.5,1499.9 671.2,1353.4 	"/>
	<circle cx="643.3" cy="701.7" r="19.2"/>
	<circle cx="562.8" cy="910.4" r="19.2"/>
	<circle cx="571.3" cy="623.7" r="19.2"/>
	<circle cx="459.8" cy="1248.9" r="19.2"/>
	<circle cx="295.4" cy="935.7" r="19.2"/>
	<circle cx="496.8" cy="994.3" r="19.2"/>
	<circle cx="663.4" cy="274.1" r="19.2"/>
	<circle cx="678.5" cy="532.5" r="19.2"/>
	<circle cx="769.3" cy="425.8" r="19.2"/>
	<circle cx="167.5" cy="813.1" r="19.2"/>
	<circle cx="479.3" cy="806.2" r="19.2"/>
	<circle cx="421.4" cy="1115.6" r="19.2"/>
	<circle cx="529.8" cy="379" r="19.2"/>
	<circle cx="638.6" cy="405.3" r="19.2"/>
	<g>
		<path d="M-227.1,1081.9c-14.6,0-26.5-11.9-26.5-26.5s11.9-26.5,26.5-26.5s26.5,11.9,26.5,26.5S-212.5,1081.9-227.1,1081.9z
			 M-227.1,1038.9c-9.1,0-16.5,7.4-16.5,16.5s7.4,16.5,16.5,16.5s16.5-7.4,16.5-16.5S-218,1038.9-227.1,1038.9z"/>
		<path d="M-227.1,1161.9c-14.6,0-26.5-11.9-26.5-26.5s11.9-26.5,26.5-26.5s26.5,11.9,26.5,26.5S-212.5,1161.9-227.1,1161.9z
			 M-227.1,1118.9c-9.1,0-16.5,7.4-16.5,16.5s7.4,16.5,16.5,16.5s16.5-7.4,16.5-16.5S-218,1118.9-227.1,1118.9z"/>
		<path d="M-227.1,1241.9c-14.6,0-26.5-11.9-26.5-26.5s11.9-26.5,26.5-26.5s26.5,11.9,26.5,26.5S-212.5,1241.9-227.1,1241.9z
			 M-227.1,1198.9c-9.1,0-16.5,7.4-16.5,16.5s7.4,16.5,16.5,16.5s16.5-7.4,16.5-16.5S-218,1198.9-227.1,1198.9z"/>
		<path d="M-227.1,1321.9c-14.6,0-26.5-11.9-26.5-26.5s11.9-26.5,26.5-26.5s26.5,11.9,26.5,26.5S-212.5,1321.9-227.1,1321.9z
			 M-227.1,1278.9c-9.1,0-16.5,7.4-16.5,16.5s7.4,16.5,16.5,16.5s16.5-7.4,16.5-16.5S-218,1278.9-227.1,1278.9z"/>
		<path d="M-227.1,1401.9c-14.6,0-26.5-11.9-26.5-26.5s11.9-26.5,26.5-26.5s26.5,11.9,26.5,26.5S-212.5,1401.9-227.1,1401.9z
			 M-227.1,1358.9c-9.1,0-16.5,7.4-16.5,16.5s7.4,16.5,16.5,16.5s16.5-7.4,16.5-16.5S-218,1358.9-227.1,1358.9z"/>
		<path d="M-307.1,1001.9c-14.6,0-26.5-11.9-26.5-26.5s11.9-26.5,26.5-26.5s26.5,11.9,26.5,26.5S-292.5,1001.9-307.1,1001.9z
			 M-307.1,958.9c-9.1,0-16.5,7.4-16.5,16.5s7.4,16.5,16.5,16.5s16.5-7.4,16.5-16.5S-298,958.9-307.1,958.9z"/>
		<path d="M-307.1,1081.9c-14.6,0-26.5-11.9-26.5-26.5s11.9-26.5,26.5-26.5s26.5,11.9,26.5,26.5S-292.5,1081.9-307.1,1081.9z
			 M-307.1,1038.9c-9.1,0-16.5,7.4-16.5,16.5s7.4,16.5,16.5,16.5s16.5-7.4,16.5-16.5S-298,1038.9-307.1,1038.9z"/>
		<path d="M-307.1,1161.9c-14.6,0-26.5-11.9-26.5-26.5s11.9-26.5,26.5-26.5s26.5,11.9,26.5,26.5S-292.5,1161.9-307.1,1161.9z
			 M-307.1,1118.9c-9.1,0-16.5,7.4-16.5,16.5s7.4,16.5,16.5,16.5s16.5-7.4,16.5-16.5S-298,1118.9-307.1,1118.9z"/>
		<path d="M-307.1,1241.9c-14.6,0-26.5-11.9-26.5-26.5s11.9-26.5,26.5-26.5s26.5,11.9,26.5,26.5S-292.5,1241.9-307.1,1241.9z
			 M-307.1,1198.9c-9.1,0-16.5,7.4-16.5,16.5s7.4,16.5,16.5,16.5s16.5-7.4,16.5-16.5S-298,1198.9-307.1,1198.9z"/>
		<path d="M-307.1,1321.9c-14.6,0-26.5-11.9-26.5-26.5s11.9-26.5,26.5-26.5s26.5,11.9,26.5,26.5S-292.5,1321.9-307.1,1321.9z
			 M-307.1,1278.9c-9.1,0-16.5,7.4-16.5,16.5s7.4,16.5,16.5,16.5s16.5-7.4,16.5-16.5S-298,1278.9-307.1,1278.9z"/>
	</g>
	<g>
		<path class="st0" d="M-337.6,326.7c-4.8,0-8.4-41.1-8.2-91.7c0.3-50.6,4.4-91.6,9.2-91.6c4.8,0,8.4,41.1,8.1,91.7
			C-328.8,285.8-332.9,326.8-337.6,326.7z"/>
		<path class="st0" d="M-411.5,216.3c5.1,0,9.4-59.3,10-132.5c0.5-73.2-3.2-132.6-8.2-132.6c-5.1,0-9.6,59.3-10.1,132.5
			C-420.4,156.8-416.5,216.2-411.5,216.3z"/>
		<path class="st0" d="M-410.6,625.6c4.9-0.1,9.1-59.5,9-132.9c0-8.4-0.4-132.7-8.8-132.8c-8.3,0-9.5,123.8-9.5,132.7
			C-419.8,502.8-418.8,625.6-410.6,625.6z"/>
		<path class="st0" d="M-331.8,465.4c-5.1,0-9.1,66.3-9.1,148.1c0,8.4,1.6,148.3,10.2,148.2c8-0.1,8.1-140.2,8.1-148.2
			C-322.7,531.6-326.8,465.4-331.8,465.4z"/>
		<path class="st0" d="M-241.4,608.3c-5.1,0-8.8,51.8-8.5,115.8c0.1,38.3,4.2,115.4,10.7,115.2c8.4-0.2,7.5-112.6,7.5-115.4
			C-232,660.1-236.4,608.3-241.4,608.3z"/>
		<path class="st0" d="M-282.6,26.1c3.2,0,6.1-39.9,6.5-89.3c0.4-49.3-1.9-89.3-5.2-89.4c-3.2,0-6.2,39.9-6.5,89.3
			C-288.2-13.9-285.8,26.1-282.6,26.1z"/>
	</g>
	<circle class="st0" cx="-215.5" cy="230.4" r="17.3"/>
	<circle class="st0" cx="-215.5" cy="310.4" r="17.3"/>
	<circle class="st0" cx="-215.5" cy="470.4" r="17.3"/>
	<circle class="st0" cx="-408.6" cy="-115.2" r="17.3"/>
</g>
<g>
	<g>
		<path d="M128.7-46.3H92.1L85.5-19H70l32.4-126h16l32.4,126h-15.5L128.7-46.3z M125.4-60l-10.3-42.7c-2-8.1-3.8-18.7-4.5-23.6h-0.5
			c-0.7,4.9-2.5,15.5-4.5,23.6L95.4-60H125.4z"/>
		<path d="M235.9-54.3c0,22.5-13.9,35.3-36,35.3h-34.4v-126h32c20.7,0,33.5,12.4,33.5,33.5c0,13.7-5.6,23.6-14.2,27.5
			C228.7-80.2,235.9-69.4,235.9-54.3z M180.3-131.1v40.9h16.6c12.8,0,19.1-7.2,19.1-20.9s-6.3-20-19.4-20H180.3z M221-54.3
			c0-14.6-9.4-22.1-23.6-22.1h-17.1v43.6h18.4C213.6-32.8,221-39.5,221-54.3z"/>
		<path d="M247.6-52.5h14.9c0.4,14.2,8.5,21.6,20.9,21.6c13.7,0,20.3-8.5,20.3-20.3c0-27-54.2-27.7-54.2-64.8
			c0-17.8,13.3-31.3,33.7-31.3c20.7,0,33.3,13.9,34,34.6h-14.9c-0.5-13.9-7.9-20.3-18.9-20.3c-11.9,0-18.9,6.8-18.9,17.3
			c0,26.8,54.4,26.3,54.4,64.8c0,18-12.4,34.4-35.3,34.4C262-16.6,248-30.5,247.6-52.5z"/>
		<path d="M396.9-131.1h-27V-19h-14.9v-112.1h-27V-145h68.9V-131.1z"/>
		<path d="M440.1-66.5h-12.8V-19h-14.8v-126h30.8c23.8,0,36.9,14,36.9,38.2c0,20.7-9.2,34.4-25,38.9l29.2,49h-16.7L440.1-66.5z
			 M427.3-80.4h15.8c14.6,0,22.1-9.2,22.1-25.9c0-16.4-7.6-24.8-22-24.8h-16V-80.4z"/>
		<path d="M548.6-46.3h-36.5L505.4-19h-15.5l32.4-126h16l32.4,126h-15.5L548.6-46.3z M545.3-60l-10.3-42.7c-2-8.1-3.8-18.7-4.5-23.6
			h-0.5c-0.7,4.9-2.5,15.5-4.5,23.6L515.3-60H545.3z"/>
		<path d="M579.6-55.3v-53.3c0-24.8,14-38.7,35.1-38.7c21.6,0,34.9,13.3,36.2,37.6h-14.6c-1.1-16.2-8.6-23.8-21.8-23.8
			c-12.1,0-20.2,7.9-20.2,24.8v53.3c0,16.7,8.5,24.7,20.7,24.7c13.3,0,20.7-7.7,22.1-23.6h14.6C650.3-30.3,637-16.8,615-16.8
			C593.8-16.8,579.6-30.5,579.6-55.3z"/>
		<path d="M728.9-131.1h-27V-19H687v-112.1h-27V-145h68.9V-131.1z"/>
	</g>
	<g>
		<path d="M319.6,48.2V66c0,11.8-6.6,18.5-15.7,18.5c-5.4,0-10.1-2.6-12.8-6.6l-0.5,5.5H287V11.1h4.2v26.6c2.5-5.1,7.4-7.7,13-7.7
			C313.6,30,319.6,36.7,319.6,48.2z M315.3,48.2c0-9.4-4.5-14.2-12.1-14.2c-6.9,0-12,5.7-12,15.4v17.2c0,8.8,5.3,13.9,11.8,13.9
			c7.4,0,12.3-4.9,12.3-14.5V48.2z"/>
		<path d="M362.4,46.5v36.9h-3.8l-0.4-5.7c-2.5,4.2-6.8,6.8-12.9,6.8c-9.2,0-15.6-5.8-15.6-15.9c0-9.8,6.3-15.4,17.6-15.4h10.8v-6.6
			c0-8-3.9-12.5-11-12.5c-6.7,0-11.2,4.1-11.4,10.1h-4.4c0.5-8.4,6.5-14.2,15.9-14.2C356.7,30,362.4,36.2,362.4,46.5z M358.1,67.6
			V57.2h-10.9c-8.6,0-13.1,4.1-13.1,11.5c0,7.5,4.7,11.6,11.8,11.6C353.7,80.3,358.1,75.6,358.1,67.6z"/>
		<path d="M375.1,66.7v-19c0-11.1,6.2-17.7,15.9-17.7c10.2,0,16.4,6.6,16.6,18h-4.4c-0.2-9-4.6-13.8-12.2-13.8
			c-7.2,0-11.6,4.8-11.6,13.5v19c0,8.7,4.5,13.5,11.7,13.5c7.6,0,12.1-4.8,12.3-13.9h4.3c-0.1,11.4-6.4,18.1-16.6,18.1
			C381.3,84.4,375.1,77.7,375.1,66.7z"/>
		<path d="M428.1,56.1l-5.2,5.7v21.6h-4.3V11.1h4.3v44.8l21.7-24.8h5.6l-19.1,21.6l21.3,30.7h-5.2L428.1,56.1z"/>
		<path d="M489.7,31.1v55.7c0,9.7-6.1,15.8-15.6,15.8c-9.7,0-15.8-5.8-16.3-14.7h4.2c0.6,6.7,4.8,10.6,12.1,10.6
			c7,0,11.2-4.2,11.2-11.7V76c-2.6,3.9-7,6.2-12,6.2c-9.5,0-16.3-6.7-16.3-17.8V48.5c0-11.8,6.7-18.5,16.1-18.5
			c5.3,0,9.7,2.5,12.4,7.1l0.4-6H489.7z M485.3,64.9V47.3c0-8.4-5.1-13.2-11.4-13.2c-7.5,0-12.6,4.8-12.6,14.4v15.9
			c0,8.8,5.1,13.7,12.6,13.7C480.7,78.1,485.3,73.2,485.3,64.9z"/>
		<path d="M527.3,30.6v4.6c-1.9-0.6-3.9-0.9-6.3-0.9c-7.7,0-13.1,6.7-13.1,17.2v31.8h-4.3V31.1h3.7l0.6,6.6v1.2
			c2.8-5.4,7.6-8.9,14-8.9C524.1,30,525.9,30.2,527.3,30.6z"/>
		<path d="M534.1,66.6V47.9c0-11.3,6.4-17.9,16.6-17.9c10.1,0,16.6,6.6,16.6,17.9v18.7c0,11.3-6.5,17.9-16.6,17.9
			C540.5,84.5,534.1,77.9,534.1,66.6z M563,66.6V47.9c0-8.9-4.6-13.7-12.2-13.7c-7.6,0-12.3,4.8-12.3,13.7v18.7
			c0,8.9,4.7,13.7,12.3,13.7C558.4,80.3,563,75.5,563,66.6z"/>
		<path d="M611.4,31.1v52.3h-3.7l-0.6-6.8v-0.9c-2.8,5.4-7.6,8.8-14.1,8.8c-8.3,0-13.6-6-13.6-19.6V31.1h4.3v33.2
			c0,10.9,3.4,16.1,10.3,16.1c7.7,0,13.1-6.7,13.1-17.4V31.1H611.4z"/>
		<path d="M657.3,49.6v33.8H653V50.2c0-10.9-3.4-16.1-10.3-16.1c-7.7,0-13.1,6.7-13.1,17.4v31.9h-4.3V31.1h3.7l0.6,6.8v0.9
			c2.8-5.4,7.6-8.8,14.1-8.8C652,30,657.3,36,657.3,49.6z"/>
		<path d="M701.9,11.1v72.3h-3.6l-0.5-5.5c-2.7,4-7.4,6.6-12.8,6.6c-9.1,0-15.7-6.7-15.7-18.5V48.2c0-11.5,6-18.2,15.4-18.2
			c5.6,0,10.5,2.6,13,7.7V11.1H701.9z M697.7,66.6V49.4c0-9.7-5.2-15.4-12-15.4c-7.6,0-12.1,4.8-12.1,14.2V66
			c0,9.6,4.9,14.5,12.3,14.5C692.4,80.5,697.7,75.4,697.7,66.6z"/>
	</g>
</g>
</svg>
