<?xml version="1.0" encoding="utf-8"?>
<!-- Generator: Adobe Illustrator 25.2.1, SVG Export Plug-In . SVG Version: 6.00 Build 0)  -->
<svg version="1.1" id="Layer_1" xmlns="http://www.w3.org/2000/svg" xmlns:xlink="http://www.w3.org/1999/xlink" x="0px" y="0px"
	 viewBox="0 0 338 600" style="enable-background:new 0 0 338 600;" xml:space="preserve">
<style type="text/css">
	.st0{fill:#FFFFFF;}
	.st1{fill:#F2F3F4;}
	.st2{fill:#75C7EF;}
</style>
<g>
	<rect x="0.1" y="-0.1" class="st0" width="337.5" height="600"/>
	<g>
		<path class="st1" d="M211.6,33.4c-31.3-21-59.8-26.7-81.8-20.2C95.5,23,69.1,57.4,88,137c5.2,21.7,71,267.7,129.9,278.3
			c43.4,7,84.6-90.1,119.7-119.1V149.8C297.2,108.8,252.7,59.8,211.6,33.4z"/>
	</g>
	<g>
		<rect x="0.1" y="167.3" class="st2" width="240" height="240"/>
	</g>
	<g>
		<path d="M246.6,129.2c-3.7,0-6.6-3-6.6-6.6s3-6.6,6.6-6.6s6.6,3,6.6,6.6S250.2,129.2,246.6,129.2z M246.6,118.4
			c-2.3,0-4.1,1.9-4.1,4.1s1.9,4.1,4.1,4.1c2.3,0,4.1-1.9,4.1-4.1S248.9,118.4,246.6,118.4z"/>
		<path d="M266.6,129.2c-3.7,0-6.6-3-6.6-6.6s3-6.6,6.6-6.6s6.6,3,6.6,6.6S270.2,129.2,266.6,129.2z M266.6,118.4
			c-2.3,0-4.1,1.9-4.1,4.1s1.9,4.1,4.1,4.1c2.3,0,4.1-1.9,4.1-4.1S268.9,118.4,266.6,118.4z"/>
		<path d="M286.6,129.2c-3.7,0-6.6-3-6.6-6.6s3-6.6,6.6-6.6s6.6,3,6.6,6.6S290.2,129.2,286.6,129.2z M286.6,118.4
			c-2.3,0-4.1,1.9-4.1,4.1s1.9,4.1,4.1,4.1c2.3,0,4.1-1.9,4.1-4.1S288.9,118.4,286.6,118.4z"/>
		<path d="M306.6,129.2c-3.7,0-6.6-3-6.6-6.6s3-6.6,6.6-6.6s6.6,3,6.6,6.6S310.2,129.2,306.6,129.2z M306.6,118.4
			c-2.3,0-4.1,1.9-4.1,4.1s1.9,4.1,4.1,4.1c2.3,0,4.1-1.9,4.1-4.1S308.9,118.4,306.6,118.4z"/>
		<path d="M326.6,129.2c-3.7,0-6.6-3-6.6-6.6s3-6.6,6.6-6.6s6.6,3,6.6,6.6S330.2,129.2,326.6,129.2z M326.6,118.4
			c-2.3,0-4.1,1.9-4.1,4.1s1.9,4.1,4.1,4.1c2.3,0,4.1-1.9,4.1-4.1S328.9,118.4,326.6,118.4z"/>
		<path d="M246.6,149.2c-3.7,0-6.6-3-6.6-6.6s3-6.6,6.6-6.6s6.6,3,6.6,6.6S250.2,149.2,246.6,149.2z M246.6,138.4
			c-2.3,0-4.1,1.9-4.1,4.1s1.9,4.1,4.1,4.1c2.3,0,4.1-1.9,4.1-4.1S248.9,138.4,246.6,138.4z"/>
		<path d="M266.6,149.2c-3.7,0-6.6-3-6.6-6.6s3-6.6,6.6-6.6s6.6,3,6.6,6.6S270.2,149.2,266.6,149.2z M266.6,138.4
			c-2.3,0-4.1,1.9-4.1,4.1s1.9,4.1,4.1,4.1c2.3,0,4.1-1.9,4.1-4.1S268.9,138.4,266.6,138.4z"/>
		<path d="M286.6,149.2c-3.7,0-6.6-3-6.6-6.6s3-6.6,6.6-6.6s6.6,3,6.6,6.6S290.2,149.2,286.6,149.2z M286.6,138.4
			c-2.3,0-4.1,1.9-4.1,4.1s1.9,4.1,4.1,4.1c2.3,0,4.1-1.9,4.1-4.1S288.9,138.4,286.6,138.4z"/>
		<path d="M306.6,149.2c-3.7,0-6.6-3-6.6-6.6s3-6.6,6.6-6.6s6.6,3,6.6,6.6S310.2,149.2,306.6,149.2z M306.6,138.4
			c-2.3,0-4.1,1.9-4.1,4.1s1.9,4.1,4.1,4.1c2.3,0,4.1-1.9,4.1-4.1S308.9,138.4,306.6,138.4z"/>
		<path d="M326.6,149.2c-3.7,0-6.6-3-6.6-6.6s3-6.6,6.6-6.6s6.6,3,6.6,6.6S330.2,149.2,326.6,149.2z M326.6,138.4
			c-2.3,0-4.1,1.9-4.1,4.1s1.9,4.1,4.1,4.1c2.3,0,4.1-1.9,4.1-4.1S328.9,138.4,326.6,138.4z"/>
	</g>
	<g>
		<path d="M113.2,81.2c-3.7,0-6.6-3-6.6-6.6s3-6.6,6.6-6.6s6.6,3,6.6,6.6S116.9,81.2,113.2,81.2z M113.2,70.4
			c-2.3,0-4.1,1.9-4.1,4.1s1.9,4.1,4.1,4.1c2.3,0,4.1-1.9,4.1-4.1S115.5,70.4,113.2,70.4z"/>
		<path d="M133.2,81.2c-3.7,0-6.6-3-6.6-6.6s3-6.6,6.6-6.6s6.6,3,6.6,6.6S136.9,81.2,133.2,81.2z M133.2,70.4
			c-2.3,0-4.1,1.9-4.1,4.1s1.9,4.1,4.1,4.1c2.3,0,4.1-1.9,4.1-4.1S135.5,70.4,133.2,70.4z"/>
		<path d="M113.2,101.2c-3.7,0-6.6-3-6.6-6.6s3-6.6,6.6-6.6s6.6,3,6.6,6.6S116.9,101.2,113.2,101.2z M113.2,90.4
			c-2.3,0-4.1,1.9-4.1,4.1s1.9,4.1,4.1,4.1c2.3,0,4.1-1.9,4.1-4.1S115.5,90.4,113.2,90.4z"/>
		<path d="M133.2,101.2c-3.7,0-6.6-3-6.6-6.6s3-6.6,6.6-6.6s6.6,3,6.6,6.6S136.9,101.2,133.2,101.2z M133.2,90.4
			c-2.3,0-4.1,1.9-4.1,4.1s1.9,4.1,4.1,4.1c2.3,0,4.1-1.9,4.1-4.1S135.5,90.4,133.2,90.4z"/>
		<path d="M153.2,121.2c-3.7,0-6.6-3-6.6-6.6s3-6.6,6.6-6.6s6.6,3,6.6,6.6S156.9,121.2,153.2,121.2z M153.2,110.4
			c-2.3,0-4.1,1.9-4.1,4.1s1.9,4.1,4.1,4.1c2.3,0,4.1-1.9,4.1-4.1S155.5,110.4,153.2,110.4z"/>
		<path d="M173.2,121.2c-3.7,0-6.6-3-6.6-6.6s3-6.6,6.6-6.6s6.6,3,6.6,6.6S176.9,121.2,173.2,121.2z M173.2,110.4
			c-2.3,0-4.1,1.9-4.1,4.1s1.9,4.1,4.1,4.1c2.3,0,4.1-1.9,4.1-4.1S175.5,110.4,173.2,110.4z"/>
		<path d="M153.2,141.2c-3.7,0-6.6-3-6.6-6.6s3-6.6,6.6-6.6s6.6,3,6.6,6.6S156.9,141.2,153.2,141.2z M153.2,130.4
			c-2.3,0-4.1,1.9-4.1,4.1s1.9,4.1,4.1,4.1c2.3,0,4.1-1.9,4.1-4.1S155.5,130.4,153.2,130.4z"/>
		<path d="M173.2,141.2c-3.7,0-6.6-3-6.6-6.6s3-6.6,6.6-6.6s6.6,3,6.6,6.6S176.9,141.2,173.2,141.2z M173.2,130.4
			c-2.3,0-4.1,1.9-4.1,4.1s1.9,4.1,4.1,4.1c2.3,0,4.1-1.9,4.1-4.1S175.5,130.4,173.2,130.4z"/>
	</g>
	<g>
		<path class="st0" d="M129.4,289.2c-3.7,0-6.6-3-6.6-6.6s3-6.6,6.6-6.6s6.6,3,6.6,6.6S133,289.2,129.4,289.2z M129.4,278.4
			c-2.3,0-4.1,1.9-4.1,4.1s1.9,4.1,4.1,4.1s4.1-1.9,4.1-4.1S131.7,278.4,129.4,278.4z"/>
		<path class="st0" d="M149.4,289.2c-3.7,0-6.6-3-6.6-6.6s3-6.6,6.6-6.6s6.6,3,6.6,6.6S153,289.2,149.4,289.2z M149.4,278.4
			c-2.3,0-4.1,1.9-4.1,4.1s1.9,4.1,4.1,4.1s4.1-1.9,4.1-4.1S151.7,278.4,149.4,278.4z"/>
		<path class="st0" d="M169.4,289.2c-3.7,0-6.6-3-6.6-6.6s3-6.6,6.6-6.6s6.6,3,6.6,6.6S173,289.2,169.4,289.2z M169.4,278.4
			c-2.3,0-4.1,1.9-4.1,4.1s1.9,4.1,4.1,4.1s4.1-1.9,4.1-4.1S171.7,278.4,169.4,278.4z"/>
		<path class="st0" d="M189.4,289.2c-3.7,0-6.6-3-6.6-6.6s3-6.6,6.6-6.6s6.6,3,6.6,6.6S193,289.2,189.4,289.2z M189.4,278.4
			c-2.3,0-4.1,1.9-4.1,4.1s1.9,4.1,4.1,4.1s4.1-1.9,4.1-4.1S191.7,278.4,189.4,278.4z"/>
		<path class="st0" d="M129.4,309.2c-3.7,0-6.6-3-6.6-6.6s3-6.6,6.6-6.6s6.6,3,6.6,6.6S133,309.2,129.4,309.2z M129.4,298.4
			c-2.3,0-4.1,1.9-4.1,4.1c0,2.3,1.9,4.1,4.1,4.1s4.1-1.9,4.1-4.1C133.5,300.3,131.7,298.4,129.4,298.4z"/>
		<path class="st0" d="M149.4,309.2c-3.7,0-6.6-3-6.6-6.6s3-6.6,6.6-6.6s6.6,3,6.6,6.6S153,309.2,149.4,309.2z M149.4,298.4
			c-2.3,0-4.1,1.9-4.1,4.1c0,2.3,1.9,4.1,4.1,4.1s4.1-1.9,4.1-4.1C153.5,300.3,151.7,298.4,149.4,298.4z"/>
		<path class="st0" d="M169.4,309.2c-3.7,0-6.6-3-6.6-6.6s3-6.6,6.6-6.6s6.6,3,6.6,6.6S173,309.2,169.4,309.2z M169.4,298.4
			c-2.3,0-4.1,1.9-4.1,4.1c0,2.3,1.9,4.1,4.1,4.1s4.1-1.9,4.1-4.1C173.5,300.3,171.7,298.4,169.4,298.4z"/>
		<path class="st0" d="M129.4,329.2c-3.7,0-6.6-3-6.6-6.6s3-6.6,6.6-6.6s6.6,3,6.6,6.6S133,329.2,129.4,329.2z M129.4,318.4
			c-2.3,0-4.1,1.9-4.1,4.1c0,2.3,1.9,4.1,4.1,4.1s4.1-1.9,4.1-4.1C133.5,320.3,131.7,318.4,129.4,318.4z"/>
		<path class="st0" d="M149.4,329.2c-3.7,0-6.6-3-6.6-6.6s3-6.6,6.6-6.6s6.6,3,6.6,6.6S153,329.2,149.4,329.2z M149.4,318.4
			c-2.3,0-4.1,1.9-4.1,4.1c0,2.3,1.9,4.1,4.1,4.1s4.1-1.9,4.1-4.1C153.5,320.3,151.7,318.4,149.4,318.4z"/>
		<path class="st0" d="M129.4,349.2c-3.7,0-6.6-3-6.6-6.6s3-6.6,6.6-6.6s6.6,3,6.6,6.6S133,349.2,129.4,349.2z M129.4,338.4
			c-2.3,0-4.1,1.9-4.1,4.1c0,2.3,1.9,4.1,4.1,4.1s4.1-1.9,4.1-4.1C133.5,340.3,131.7,338.4,129.4,338.4z"/>
	</g>
	<polygon class="st2" points="200.6,563.3 221.8,599.9 273.3,599.9 294.4,563.3 	"/>
	<circle cx="287.5" cy="400.4" r="4.8"/>
	<circle cx="267.3" cy="452.5" r="4.8"/>
	<circle cx="269.5" cy="380.9" r="4.8"/>
	<circle cx="241.6" cy="537.2" r="4.8"/>
	<circle cx="200.5" cy="458.9" r="4.8"/>
	<circle cx="250.9" cy="473.5" r="4.8"/>
	<circle cx="292.5" cy="293.5" r="4.8"/>
	<circle cx="296.3" cy="358.1" r="4.8"/>
	<circle cx="319" cy="331.4" r="4.8"/>
	<circle cx="168.5" cy="428.2" r="4.8"/>
	<circle cx="246.5" cy="426.5" r="4.8"/>
	<circle cx="232" cy="503.8" r="4.8"/>
	<circle cx="259.1" cy="319.7" r="4.8"/>
	<circle cx="286.3" cy="326.3" r="4.8"/>
	<g>
		<path d="M69.9,495.4c-3.7,0-6.6-3-6.6-6.6s3-6.6,6.6-6.6s6.6,3,6.6,6.6S73.5,495.4,69.9,495.4z M69.9,484.7
			c-2.3,0-4.1,1.9-4.1,4.1s1.9,4.1,4.1,4.1s4.1-1.9,4.1-4.1S72.1,484.7,69.9,484.7z"/>
		<path d="M69.9,515.4c-3.7,0-6.6-3-6.6-6.6c0-3.7,3-6.6,6.6-6.6s6.6,3,6.6,6.6C76.5,512.5,73.5,515.4,69.9,515.4z M69.9,504.7
			c-2.3,0-4.1,1.9-4.1,4.1s1.9,4.1,4.1,4.1s4.1-1.9,4.1-4.1S72.1,504.7,69.9,504.7z"/>
		<path d="M69.9,535.4c-3.7,0-6.6-3-6.6-6.6s3-6.6,6.6-6.6s6.6,3,6.6,6.6S73.5,535.4,69.9,535.4z M69.9,524.7
			c-2.3,0-4.1,1.9-4.1,4.1s1.9,4.1,4.1,4.1s4.1-1.9,4.1-4.1S72.1,524.7,69.9,524.7z"/>
		<path d="M69.9,555.4c-3.7,0-6.6-3-6.6-6.6s3-6.6,6.6-6.6s6.6,3,6.6,6.6S73.5,555.4,69.9,555.4z M69.9,544.7
			c-2.3,0-4.1,1.9-4.1,4.1s1.9,4.1,4.1,4.1s4.1-1.9,4.1-4.1S72.1,544.7,69.9,544.7z"/>
		<path d="M69.9,575.4c-3.7,0-6.6-3-6.6-6.6s3-6.6,6.6-6.6s6.6,3,6.6,6.6S73.5,575.4,69.9,575.4z M69.9,564.7
			c-2.3,0-4.1,1.9-4.1,4.1s1.9,4.1,4.1,4.1s4.1-1.9,4.1-4.1S72.1,564.7,69.9,564.7z"/>
		<path d="M49.9,475.4c-3.7,0-6.6-3-6.6-6.6s3-6.6,6.6-6.6s6.6,3,6.6,6.6S53.5,475.4,49.9,475.4z M49.9,464.7
			c-2.3,0-4.1,1.9-4.1,4.1s1.9,4.1,4.1,4.1s4.1-1.9,4.1-4.1S52.1,464.7,49.9,464.7z"/>
		<path d="M49.9,495.4c-3.7,0-6.6-3-6.6-6.6s3-6.6,6.6-6.6s6.6,3,6.6,6.6S53.5,495.4,49.9,495.4z M49.9,484.7
			c-2.3,0-4.1,1.9-4.1,4.1s1.9,4.1,4.1,4.1s4.1-1.9,4.1-4.1S52.1,484.7,49.9,484.7z"/>
		<path d="M49.9,515.4c-3.7,0-6.6-3-6.6-6.6c0-3.7,3-6.6,6.6-6.6s6.6,3,6.6,6.6C56.5,512.5,53.5,515.4,49.9,515.4z M49.9,504.7
			c-2.3,0-4.1,1.9-4.1,4.1s1.9,4.1,4.1,4.1s4.1-1.9,4.1-4.1S52.1,504.7,49.9,504.7z"/>
		<path d="M49.9,535.4c-3.7,0-6.6-3-6.6-6.6s3-6.6,6.6-6.6s6.6,3,6.6,6.6S53.5,535.4,49.9,535.4z M49.9,524.7
			c-2.3,0-4.1,1.9-4.1,4.1s1.9,4.1,4.1,4.1s4.1-1.9,4.1-4.1S52.1,524.7,49.9,524.7z"/>
		<path d="M49.9,555.4c-3.7,0-6.6-3-6.6-6.6s3-6.6,6.6-6.6s6.6,3,6.6,6.6S53.5,555.4,49.9,555.4z M49.9,544.7
			c-2.3,0-4.1,1.9-4.1,4.1s1.9,4.1,4.1,4.1s4.1-1.9,4.1-4.1S52.1,544.7,49.9,544.7z"/>
	</g>
	<g>
		<path class="st0" d="M42.2,306.6c-1.2,0-2.1-10.3-2-22.9c0.1-12.7,1.1-22.9,2.3-22.9c1.2,0,2.1,10.3,2,22.9
			C44.4,296.4,43.4,306.6,42.2,306.6z"/>
		<path class="st0" d="M23.8,279c1.3,0,2.4-14.8,2.5-33.1c0.1-18.3-0.8-33.1-2-33.2c-1.3,0-2.4,14.8-2.5,33.1
			C21.6,264.1,22.5,279,23.8,279z"/>
		<path class="st0" d="M24,381.3c1.2,0,2.3-14.9,2.3-33.2c0-2.1-0.1-33.2-2.2-33.2c-2.1,0-2.4,30.9-2.4,33.2
			C21.7,350.7,21.9,381.4,24,381.3z"/>
		<path class="st0" d="M43.7,341.3c-1.3,0-2.3,16.6-2.3,37c0,2.1,0.4,37.1,2.5,37c2,0,2-35.1,2-37.1C46,357.9,44.9,341.3,43.7,341.3
			z"/>
		<path class="st0" d="M66.3,377c-1.3,0-2.2,13-2.1,28.9c0,9.6,1.1,28.8,2.7,28.8c2.1,0,1.9-28.2,1.9-28.9
			C68.6,390,67.5,377,66.3,377z"/>
		<path class="st0" d="M56,231.5c0.8,0,1.5-10,1.6-22.3c0.1-12.3-0.5-22.3-1.3-22.3c-0.8,0-1.5,10-1.6,22.3
			C54.6,221.5,55.2,231.5,56,231.5z"/>
	</g>
	<circle class="st0" cx="72.8" cy="282.6" r="4.3"/>
	<circle class="st0" cx="72.8" cy="302.6" r="4.3"/>
	<circle class="st0" cx="72.8" cy="342.6" r="4.3"/>
	<circle class="st0" cx="24.5" cy="196.1" r="4.3"/>
</g>
<g>
	<g>
		<path d="M158.8,213.4h-9.1l-1.7,6.8h-3.9l8.1-31.5h4l8.1,31.5h-3.9L158.8,213.4z M158,209.9l-2.6-10.7c-0.5-2-0.9-4.7-1.1-5.9
			h-0.1c-0.2,1.2-0.6,3.9-1.1,5.9l-2.6,10.7H158z"/>
		<path d="M185.6,211.4c0,5.6-3.5,8.8-9,8.8H168v-31.5h8c5.2,0,8.4,3.1,8.4,8.4c0,3.4-1.4,5.9-3.6,6.9
			C183.8,204.9,185.6,207.6,185.6,211.4z M171.7,192.2v10.2h4.1c3.2,0,4.8-1.8,4.8-5.2s-1.6-5-4.9-5H171.7z M181.9,211.4
			c0-3.6-2.3-5.5-5.9-5.5h-4.3v10.9h4.6C180,216.7,181.9,215.1,181.9,211.4z"/>
		<path d="M188.6,211.8h3.7c0.1,3.6,2.1,5.4,5.2,5.4c3.4,0,5.1-2.1,5.1-5.1c0-6.7-13.5-6.9-13.5-16.2c0-4.5,3.3-7.8,8.4-7.8
			c5.2,0,8.3,3.5,8.5,8.6h-3.7c-0.1-3.5-2-5.1-4.7-5.1c-3,0-4.7,1.7-4.7,4.3c0,6.7,13.6,6.6,13.6,16.2c0,4.5-3.1,8.6-8.8,8.6
			C192.1,220.8,188.6,217.3,188.6,211.8z"/>
		<path d="M225.9,192.2h-6.7v28h-3.7v-28h-6.7v-3.5h17.2V192.2z"/>
		<path d="M236.7,208.3h-3.2v11.9h-3.7v-31.5h7.7c5.9,0,9.2,3.5,9.2,9.5c0,5.2-2.3,8.6-6.3,9.7l7.3,12.2h-4.2L236.7,208.3z
			 M233.5,204.9h4c3.6,0,5.5-2.3,5.5-6.5c0-4.1-1.9-6.2-5.5-6.2h-4V204.9z"/>
		<path d="M263.8,213.4h-9.1l-1.7,6.8h-3.9l8.1-31.5h4l8.1,31.5h-3.9L263.8,213.4z M263,209.9l-2.6-10.7c-0.5-2-0.9-4.7-1.1-5.9
			h-0.1c-0.2,1.2-0.6,3.9-1.1,5.9l-2.6,10.7H263z"/>
		<path d="M271.5,211.1v-13.3c0-6.2,3.5-9.7,8.8-9.7c5.4,0,8.7,3.3,9,9.4h-3.6c-0.3-4-2.2-5.9-5.4-5.9c-3,0-5,2-5,6.2v13.3
			c0,4.2,2.1,6.2,5.2,6.2c3.3,0,5.2-1.9,5.5-5.9h3.6c-0.4,6-3.7,9.4-9.2,9.4C275.1,220.7,271.5,217.3,271.5,211.1z"/>
		<path d="M308.9,192.2h-6.7v28h-3.7v-28h-6.7v-3.5h17.2V192.2z"/>
	</g>
	<g>
		<path d="M206.5,237v4.5c0,3-1.7,4.6-3.9,4.6c-1.4,0-2.5-0.6-3.2-1.6l-0.1,1.4h-0.9v-18.1h1.1v6.7c0.6-1.3,1.9-1.9,3.3-1.9
			C205,232.4,206.5,234.1,206.5,237z M205.5,237c0-2.4-1.1-3.6-3-3.6c-1.7,0-3,1.4-3,3.9v4.3c0,2.2,1.3,3.5,3,3.5
			c1.9,0,3.1-1.2,3.1-3.6V237z"/>
		<path d="M217.2,236.6v9.2h-1l-0.1-1.4c-0.6,1.1-1.7,1.7-3.2,1.7c-2.3,0-3.9-1.4-3.9-4c0-2.5,1.6-3.9,4.4-3.9h2.7v-1.7
			c0-2-1-3.1-2.8-3.1c-1.7,0-2.8,1-2.9,2.5h-1.1c0.1-2.1,1.6-3.6,4-3.6C215.8,232.4,217.2,234,217.2,236.6z M216.2,241.8v-2.6h-2.7
			c-2.2,0-3.3,1-3.3,2.9c0,1.9,1.2,2.9,3,2.9C215.1,245,216.2,243.8,216.2,241.8z"/>
		<path d="M220.4,241.6v-4.8c0-2.8,1.6-4.4,4-4.4c2.6,0,4.1,1.7,4.2,4.5h-1.1c0-2.2-1.1-3.5-3.1-3.5c-1.8,0-2.9,1.2-2.9,3.4v4.8
			c0,2.2,1.1,3.4,2.9,3.4c1.9,0,3-1.2,3.1-3.5h1.1c0,2.9-1.6,4.5-4.2,4.5C222,246,220.4,244.4,220.4,241.6z"/>
		<path d="M233.7,239l-1.3,1.4v5.4h-1.1v-18.1h1.1v11.2l5.4-6.2h1.4l-4.8,5.4l5.3,7.7h-1.3L233.7,239z"/>
		<path d="M249.1,232.7v13.9c0,2.4-1.5,4-3.9,4c-2.4,0-4-1.5-4.1-3.7h1.1c0.2,1.7,1.2,2.7,3,2.7c1.8,0,2.8-1.1,2.8-2.9v-2.7
			c-0.6,1-1.8,1.6-3,1.6c-2.4,0-4.1-1.7-4.1-4.5v-4c0-3,1.7-4.6,4-4.6c1.3,0,2.4,0.6,3.1,1.8l0.1-1.5H249.1z M248,241.2v-4.4
			c0-2.1-1.3-3.3-2.9-3.3c-1.9,0-3.2,1.2-3.2,3.6v4c0,2.2,1.3,3.4,3.2,3.4C246.8,244.5,248,243.2,248,241.2z"/>
		<path d="M258.5,232.6v1.1c-0.5-0.1-1-0.2-1.6-0.2c-1.9,0-3.3,1.7-3.3,4.3v8h-1.1v-13.1h0.9l0.2,1.6v0.3c0.7-1.4,1.9-2.2,3.5-2.2
			C257.7,232.4,258.1,232.5,258.5,232.6z"/>
		<path d="M260.2,241.6v-4.7c0-2.8,1.6-4.5,4.2-4.5c2.5,0,4.2,1.7,4.2,4.5v4.7c0,2.8-1.6,4.5-4.2,4.5
			C261.8,246.1,260.2,244.4,260.2,241.6z M267.4,241.6v-4.7c0-2.2-1.2-3.4-3.1-3.4c-1.9,0-3.1,1.2-3.1,3.4v4.7
			c0,2.2,1.2,3.4,3.1,3.4C266.2,245,267.4,243.8,267.4,241.6z"/>
		<path d="M279.5,232.7v13.1h-0.9l-0.2-1.7v-0.2c-0.7,1.4-1.9,2.2-3.5,2.2c-2.1,0-3.4-1.5-3.4-4.9v-8.5h1.1v8.3c0,2.7,0.9,4,2.6,4
			c1.9,0,3.3-1.7,3.3-4.4v-8H279.5z"/>
		<path d="M291,237.3v8.5h-1.1v-8.3c0-2.7-0.9-4-2.6-4c-1.9,0-3.3,1.7-3.3,4.4v8H283v-13.1h0.9l0.2,1.7v0.2c0.7-1.4,1.9-2.2,3.5-2.2
			C289.7,232.4,291,233.9,291,237.3z"/>
		<path d="M302.1,227.7v18.1h-0.9l-0.1-1.4c-0.7,1-1.9,1.6-3.2,1.6c-2.3,0-3.9-1.7-3.9-4.6V237c0-2.9,1.5-4.6,3.9-4.6
			c1.4,0,2.6,0.7,3.3,1.9v-6.7H302.1z M301.1,241.6v-4.3c0-2.4-1.3-3.9-3-3.9c-1.9,0-3,1.2-3,3.6v4.5c0,2.4,1.2,3.6,3.1,3.6
			C299.8,245.1,301.1,243.8,301.1,241.6z"/>
	</g>
</g>
</svg>
