<?xml version="1.0" encoding="utf-8"?>
<!-- Generator: Adobe Illustrator 25.2.1, SVG Export Plug-In . SVG Version: 6.00 Build 0)  -->
<svg version="1.1" id="Capa_1" xmlns="http://www.w3.org/2000/svg" xmlns:xlink="http://www.w3.org/1999/xlink" x="0px" y="0px"
	 viewBox="0 0 800 800" style="enable-background:new 0 0 800 800;" xml:space="preserve">
<polygon points="449.1,767.2 337.4,767.2 222.6,767.2 0,767.2 0,800 800,800 800,767.2 563.9,767.2 "/>
<polygon points="476.5,667.4 525.2,667.4 536.5,667.4 536.5,767.2 476.5,767.2 "/>
<path d="M563.9,667.4h215.4L647.1,473h90.6L605.5,278.6h90.6L506.5,0L393.3,166.5L280,0L90.4,278.6H181L48.8,473h90.6L7.2,667.4
	h215.4h114.8h111.7H563.9z M506.5,58.3l127.6,187.5h-90.6l132.2,194.4h-90.6l132.2,194.4H530.5L420.6,473h90.6L379,278.6h90.6
	l-56.5-83L506.5,58.3z M201.4,440.2h-90.6L243,245.8h-90.6L280,58.3l127.6,187.5H317l132.2,194.4h-90.6l132.2,194.4H69.2
	L201.4,440.2z"/>
<rect x="250" y="667.4" width="60" height="99.8"/>
</svg>
