<?xml version="1.0" encoding="utf-8"?>
<!-- Generator: Adobe Illustrator 25.2.1, SVG Export Plug-In . SVG Version: 6.00 Build 0)  -->
<svg version="1.1" id="Layer_3" xmlns="http://www.w3.org/2000/svg" xmlns:xlink="http://www.w3.org/1999/xlink" x="0px" y="0px"
	 viewBox="0 0 800 800" style="enable-background:new 0 0 800 800;" xml:space="preserve">
<path d="M798.7,521.9l-190-504.6c-2.9-7.8-10.4-13-18.7-13s-15.8,5.2-18.7,13L495,219.9L418.7,17.3c-2.9-7.8-10.4-13-18.7-13
	s-15.8,5.2-18.7,13L305,219.9L228.7,17.3c-2.9-7.8-10.4-13-18.7-13s-15.8,5.2-18.7,13L1.3,521.9c-2.3,6.2-1.5,13,2.3,18.4
	c3.7,5.4,9.9,8.6,16.5,8.6h170v251h40V549h150v251h40V549h150v251h40V549h170c6.6,0,12.7-3.2,16.5-8.6
	C800.2,535,801,528.1,798.7,521.9z M48.9,509L210,81.1l73.6,195.5L371.1,509H48.9z M413.8,509L400,472.2l-73.6-195.5L400,81.1
	l73.6,195.5l21.4,56.8L561.1,509H413.8z M603.8,509l-87.5-232.3L590,81.1L751.1,509H603.8z"/>
</svg>
