<?xml version="1.0" encoding="utf-8"?>
<!-- Generator: Adobe Illustrator 25.2.1, SVG Export Plug-In . SVG Version: 6.00 Build 0)  -->
<svg version="1.1" id="Capa_1" xmlns="http://www.w3.org/2000/svg" xmlns:xlink="http://www.w3.org/1999/xlink" x="0px" y="0px"
	 viewBox="0 0 800 800" style="enable-background:new 0 0 800 800;" xml:space="preserve">
<path d="M783.2,766.5H546.4V487.8H724c5.6,0,10.9-2.8,14-7.6c3.1-4.7,3.6-10.7,1.4-15.9L545.1,15.5c-2.7-6.1-8.7-10.1-15.4-10.1
	c-6.7,0-12.7,4-15.4,10.1L400,279.5l-114.3-264C283,9.4,277,5.5,270.3,5.5s-12.7,4-15.4,10.1L60.6,464.4c-2.2,5.2-1.7,11.1,1.4,15.9
	c3.1,4.7,8.4,7.6,14,7.6h177.6v278.7H16.8C7.5,766.5,0,774,0,783.2c0,9.3,7.5,16.8,16.8,16.8h766.5c9.3,0,16.8-7.5,16.8-16.8
	S792.5,766.5,783.2,766.5z M529.7,64.4l168.8,389.9H475.7l-57.4-132.6L529.7,64.4z M270.3,64.4l114.1,263.4c0,0,0,0.1,0.1,0.1
	l54.7,126.3H101.5L270.3,64.4z M287.1,487.8h177.6h0.1h48.2v278.7H287.1V487.8z"/>
</svg>
