<?xml version="1.0" encoding="utf-8"?>
<!-- Generator: Adobe Illustrator 25.2.1, SVG Export Plug-In . SVG Version: 6.00 Build 0)  -->
<svg version="1.1" xmlns="http://www.w3.org/2000/svg" xmlns:xlink="http://www.w3.org/1999/xlink" x="0px" y="0px"
	 viewBox="0 0 540 180" style="enable-background:new 0 0 540 180;" xml:space="preserve">
<style type="text/css">
	.st0{fill:#FFFFFF;}
	.st1{fill:#396D8F;}
	.st2{fill:#53AAA7;}
	.st3{fill:#5B61AA;}
	.st4{fill:#B59B30;}
	.st5{fill:#F7BC14;}
	.st6{fill:#F47069;}
	.st7{fill:#5B61AA;stroke:#5B61AA;stroke-width:0.75;stroke-miterlimit:10;}
</style>
<g id="Layer_5">
	<rect class="st0" width="540" height="180"/>
</g>
<g id="text_copy_3">
	<g>
		<path d="M67.6,20.7v14h-2v-6.2h-4v6.2h-2v-14h2v6h4v-6H67.6z"/>
		<path d="M77.2,22.6h-2.9v12.1h-2.1V22.6h-2.9v-1.9h7.9V22.6z"/>
		<path d="M89.8,20.7v14h-2v-5.5c0-1.6,0.1-3.1,0.2-4.5l-0.1,0c-0.4,1.1-0.9,2.4-1.4,3.7l-1.2,3.2h-2l-1.2-3.2
			c-0.5-1.3-1-2.6-1.4-3.7l-0.1,0c0.1,1.5,0.1,2.9,0.2,4.5v5.5h-2v-14h2.1l2.4,5.7c0.3,0.8,0.8,2.1,1,2.8h0.1c0.2-0.6,0.7-2,1-2.8
			l2.4-5.7H89.8z"/>
		<path d="M99.3,32.8v1.9h-6.7v-14h2v12.1H99.3z"/>
		<path d="M107.3,29.1v1.6c0,2.8-1.3,4.3-3.5,4.3c-2.1,0-3.4-1.4-3.5-3.8h1.9c0.1,1.3,0.6,1.9,1.6,1.9c1,0,1.5-0.6,1.5-2.4v-1.5
			c0-1.5-0.5-2.1-1.5-2.1c-0.8,0-1.3,0.5-1.5,1.3h-1.8v-7.7h6.3v1.7h-4.5v3.3c0.5-0.3,1.1-0.6,1.8-0.6
			C106,25.2,107.3,26.6,107.3,29.1z"/>
	</g>
	<g>
		<path d="M185.1,30.6v-5.8c0-2.8,1.6-4.4,4.1-4.4c2.5,0,4,1.5,4.2,4.3h-2c-0.1-1.6-0.8-2.4-2.2-2.4c-1.2,0-2,0.8-2,2.5v5.8
			c0,1.7,0.8,2.4,2,2.4c1.4,0,2.1-0.8,2.2-2.4h2c-0.1,2.8-1.6,4.3-4.2,4.3C186.7,35,185.1,33.4,185.1,30.6z"/>
		<path d="M194.5,30.9h2.1c0,1.4,0.8,2.1,2,2.1c1.3,0,2-0.8,2-1.9c0-2.8-5.9-2.9-5.9-7.1c0-2,1.5-3.5,3.8-3.5c2.4,0,3.8,1.5,3.9,3.9
			h-2.1c0-1.3-0.7-2-1.8-2c-1.1,0-1.8,0.6-1.8,1.6c0,2.7,5.9,2.7,5.9,7.1c0,2.1-1.5,3.9-4.1,3.9C196.1,35,194.5,33.4,194.5,30.9z"/>
		<path d="M203.8,30.9h2.1c0,1.4,0.8,2.1,2,2.1c1.3,0,2-0.8,2-1.9c0-2.8-5.9-2.9-5.9-7.1c0-2,1.5-3.5,3.8-3.5c2.4,0,3.8,1.5,3.9,3.9
			h-2.1c0-1.3-0.7-2-1.8-2c-1.1,0-1.8,0.6-1.8,1.6c0,2.7,5.9,2.7,5.9,7.1c0,2.1-1.5,3.9-4.1,3.9C205.5,35,203.9,33.4,203.8,30.9z"/>
		<path d="M220.3,29.8v0.9c0,2.7-1.2,4.2-3.6,4.2c-2.2,0-3.6-1.4-3.7-4h1.9c0.1,1.6,0.7,2.1,1.7,2.1c1.2,0,1.7-0.7,1.7-2.3v-0.9
			c0-1.5-0.7-2.1-1.9-2.1h-1.3v-1.4l2.5-4h-4.1v-1.8h6.5V22l-2.7,4.3C219.2,26.4,220.3,27.9,220.3,29.8z"/>
	</g>
	<g>
		<path d="M329.1,35.2c1.5,0,2.3-0.6,2.3-2.7V20.7h2v11.8c0,3-1.5,4.6-4.4,4.6V35.2z"/>
		<path d="M341.4,31.9h-3.7l-0.6,2.8H335l3.5-14h2.2l3.5,14h-2.1L341.4,31.9z M341,30l-0.9-3.8c-0.2-0.9-0.4-2.3-0.5-3h-0.1
			c-0.1,0.7-0.3,2.1-0.5,3l-0.9,3.8H341z"/>
		<path d="M343.9,20.7h2.1l1.7,7.7c0.3,1.2,0.5,2.6,0.7,3.7h0.1c0.2-1.1,0.4-2.5,0.7-3.7l1.7-7.7h2.1l-3.4,14h-2.2L343.9,20.7z"/>
		<path d="M359.3,31.9h-3.7l-0.6,2.8h-2.1l3.5-14h2.2l3.5,14h-2.1L359.3,31.9z M358.8,30l-0.9-3.8c-0.2-0.9-0.4-2.3-0.5-3h-0.1
			c-0.1,0.7-0.3,2.1-0.5,3L356,30H358.8z"/>
		<path d="M362.6,30.9h2.1c0,1.4,0.8,2.1,2,2.1c1.3,0,2-0.8,2-1.9c0-2.8-5.9-2.9-5.9-7.1c0-2,1.5-3.5,3.8-3.5c2.4,0,3.8,1.5,3.9,3.9
			h-2.1c0-1.3-0.7-2-1.8-2c-1.1,0-1.8,0.6-1.8,1.6c0,2.7,5.9,2.7,5.9,7.1c0,2.1-1.5,3.9-4.1,3.9C364.2,35,362.6,33.4,362.6,30.9z"/>
		<path d="M372.4,30.6v-5.8c0-2.8,1.6-4.4,4.1-4.4c2.5,0,4,1.5,4.2,4.3h-2c-0.1-1.6-0.8-2.4-2.2-2.4c-1.2,0-2,0.8-2,2.5v5.8
			c0,1.7,0.8,2.4,2,2.4c1.4,0,2.1-0.8,2.2-2.4h2c-0.1,2.8-1.6,4.3-4.2,4.3C374,35,372.4,33.4,372.4,30.6z"/>
		<path d="M386,29.6h-1.3v5.1h-2v-14h3.6c2.7,0,4.2,1.6,4.2,4.4c0,2.2-0.9,3.7-2.5,4.3l3,5.4h-2.2L386,29.6z M384.7,27.7h1.6
			c1.4,0,2.2-0.9,2.2-2.6s-0.7-2.5-2.1-2.5h-1.6V27.7z"/>
		<path d="M392.8,20.7h2v14h-2V20.7z"/>
		<path d="M405.6,25.2c0,2.9-1.6,4.6-4.3,4.6h-1.7v4.9h-2v-14h3.7C404.1,20.7,405.6,22.3,405.6,25.2z M403.6,25.2
			c0-1.7-0.7-2.6-2.3-2.6h-1.7v5.3h1.7C402.8,27.9,403.6,27,403.6,25.2z"/>
		<path d="M414.2,22.6h-2.9v12.1h-2.1V22.6h-2.9v-1.9h7.9V22.6z"/>
	</g>
	<g>
		<path d="M62.8,89.6h-1.3v5.1h-2v-14h3.6c2.7,0,4.2,1.6,4.2,4.4c0,2.2-0.9,3.7-2.5,4.3l3,5.4h-2.2L62.8,89.6z M61.6,87.7h1.6
			c1.4,0,2.2-0.9,2.2-2.6s-0.7-2.5-2.1-2.5h-1.6V87.7z"/>
		<path d="M76.7,92.8v1.9h-7.1v-14h6.9v1.9h-4.9v4.1h4.5v1.9h-4.5v4.3H76.7z"/>
		<path d="M84.1,91.9h-3.7l-0.6,2.8h-2.1l3.5-14h2.2l3.5,14h-2.1L84.1,91.9z M83.7,90l-0.9-3.8c-0.2-0.9-0.4-2.3-0.5-3h-0.1
			c-0.1,0.7-0.3,2.1-0.5,3L80.8,90H83.7z"/>
		<path d="M87.7,90.6v-5.8c0-2.8,1.6-4.4,4.1-4.4c2.5,0,4,1.5,4.2,4.3h-2c-0.1-1.6-0.8-2.4-2.2-2.4c-1.2,0-2,0.8-2,2.5v5.8
			c0,1.7,0.8,2.4,2,2.4c1.4,0,2.1-0.8,2.2-2.4h2c-0.1,2.8-1.6,4.3-4.2,4.3C89.3,95,87.7,93.4,87.7,90.6z"/>
		<path d="M104.8,82.6h-2.9v12.1h-2.1V82.6h-2.9v-1.9h7.9V82.6z"/>
	</g>
	<g>
		<path d="M192.6,92.8v1.9h-7.1v-14h6.9v1.9h-4.9v4.1h4.5v1.9h-4.5v4.3H192.6z"/>
		<path d="M200.3,94.7l-2.2-5.3l-2.3,5.3h-2.2l3.3-7.3l-3.1-6.8h2.2l2.1,4.9l2.1-4.9h2.2l-3.2,6.8l3.3,7.3H200.3z"/>
		<path d="M212.2,85.2c0,2.9-1.6,4.6-4.3,4.6h-1.7v4.9h-2v-14h3.7C210.6,80.7,212.2,82.3,212.2,85.2z M210.1,85.2
			c0-1.7-0.7-2.6-2.3-2.6h-1.7v5.3h1.7C209.4,87.9,210.1,87,210.1,85.2z"/>
		<path d="M217.2,89.6h-1.3v5.1h-2v-14h3.6c2.7,0,4.2,1.6,4.2,4.4c0,2.2-0.9,3.7-2.5,4.3l3,5.4H220L217.2,89.6z M215.9,87.7h1.6
			c1.4,0,2.2-0.9,2.2-2.6s-0.7-2.5-2.1-2.5h-1.6V87.7z"/>
		<path d="M231.1,92.8v1.9H224v-14h6.9v1.9H226v4.1h4.5v1.9H226v4.3H231.1z"/>
		<path d="M232.4,90.9h2.1c0,1.4,0.8,2.1,2,2.1c1.3,0,2-0.8,2-1.9c0-2.8-5.9-2.9-5.9-7.1c0-2,1.5-3.5,3.8-3.5c2.4,0,3.8,1.5,3.9,3.9
			h-2.1c0-1.3-0.7-2-1.8-2c-1.1,0-1.8,0.6-1.8,1.6c0,2.7,5.9,2.7,5.9,7.1c0,2.1-1.5,3.9-4.1,3.9C234,95,232.4,93.4,232.4,90.9z"/>
		<path d="M241.7,90.9h2.1c0,1.4,0.8,2.1,2,2.1c1.3,0,2-0.8,2-1.9c0-2.8-5.9-2.9-5.9-7.1c0-2,1.5-3.5,3.8-3.5c2.4,0,3.8,1.5,3.9,3.9
			h-2.1c0-1.3-0.7-2-1.8-2c-1.1,0-1.8,0.6-1.8,1.6c0,2.7,5.9,2.7,5.9,7.1c0,2.1-1.5,3.9-4.1,3.9C243.3,95,241.7,93.4,241.7,90.9z"/>
		<path d="M250.8,93.7c0-0.7,0.5-1.2,1.2-1.2s1.2,0.5,1.2,1.2c0,0.7-0.5,1.2-1.2,1.2S250.8,94.5,250.8,93.7z"/>
		<path d="M254,95.2c1.5,0,2.3-0.6,2.3-2.7V80.7h2v11.8c0,3-1.5,4.6-4.4,4.6V95.2z"/>
		<path d="M260.2,90.9h2.1c0,1.4,0.8,2.1,2,2.1c1.3,0,2-0.8,2-1.9c0-2.8-5.9-2.9-5.9-7.1c0-2,1.5-3.5,3.8-3.5c2.4,0,3.8,1.5,3.9,3.9
			h-2.1c0-1.3-0.7-2-1.8-2c-1.1,0-1.8,0.6-1.8,1.6c0,2.7,5.9,2.7,5.9,7.1c0,2.1-1.5,3.9-4.1,3.9C261.8,95,260.2,93.4,260.2,90.9z"/>
	</g>
	<g>
		<path d="M341.5,80.7v14h-2v-5.5c0-1.6,0.1-3.1,0.2-4.5l-0.1,0c-0.4,1.1-0.9,2.4-1.4,3.7l-1.2,3.2h-2l-1.2-3.2
			c-0.5-1.3-1-2.6-1.4-3.7l-0.1,0c0.1,1.5,0.1,2.9,0.2,4.5v5.5h-2v-14h2.1l2.4,5.7c0.3,0.8,0.8,2.1,1,2.8h0.1c0.2-0.6,0.7-2,1-2.8
			l2.4-5.7H341.5z"/>
		<path d="M343.9,90.3v-5.1c0-2.9,1.6-4.7,4.3-4.7s4.3,1.8,4.3,4.7v5.1c0,2.9-1.6,4.7-4.3,4.7S343.9,93.2,343.9,90.3z M350.4,90.3
			v-5.1c0-1.8-0.8-2.7-2.2-2.7c-1.5,0-2.2,1-2.2,2.7v5.1c0,1.8,0.7,2.7,2.2,2.7C349.7,93,350.4,92,350.4,90.3z"/>
		<path d="M354.9,80.7h2l3.2,7.2c0.4,0.9,0.9,2.2,1.3,3.1l0.1,0c-0.2-1.4-0.3-3.5-0.3-4.7v-5.5h2v14h-2l-3.1-6.9
			c-0.4-1-1-2.5-1.3-3.4l-0.1,0c0.1,1.4,0.2,3.5,0.2,4.8v5.4h-2V80.7z"/>
		<path d="M365.6,90.5v-5.7c0-2.8,1.6-4.4,4.1-4.4c2.5,0,4,1.5,4.1,4.3h-2c-0.1-1.6-0.8-2.3-2.1-2.3s-2,0.7-2,2.4v5.7
			c0,1.7,0.8,2.4,2.1,2.4c1.3,0,2.1-0.7,2.1-2.3v-1.8h-2.2v-1.8h4.2v3.6c0,2.7-1.6,4.3-4.2,4.3S365.6,93.4,365.6,90.5z"/>
		<path d="M375.8,90.3v-5.1c0-2.9,1.6-4.7,4.3-4.7c2.7,0,4.3,1.8,4.3,4.7v5.1c0,2.9-1.6,4.7-4.3,4.7C377.4,95,375.8,93.2,375.8,90.3
			z M382.3,90.3v-5.1c0-1.8-0.8-2.7-2.2-2.7c-1.5,0-2.2,1-2.2,2.7v5.1c0,1.8,0.7,2.7,2.2,2.7C381.5,93,382.3,92,382.3,90.3z"/>
		<path d="M386.8,80.7h3.5c2.7,0,4.3,1.6,4.3,4.4v5.3c0,2.8-1.6,4.4-4.3,4.4h-3.5V80.7z M390.3,92.8c1.4,0,2.3-0.9,2.3-2.5v-5.2
			c0-1.6-0.8-2.5-2.3-2.5h-1.5v10.2H390.3z"/>
		<path d="M405,90.7c0,2.5-1.6,4-4,4h-4v-14h3.8c2.3,0,3.7,1.5,3.7,3.8c0,1.4-0.6,2.5-1.4,3C404.3,88,405,89.2,405,90.7z M399,82.6
			v4h1.6c1.2,0,1.8-0.7,1.8-2.1c0-1.3-0.6-2-1.9-2H399z M403,90.7c0-1.4-0.9-2.2-2.3-2.2H399v4.3h1.7C402.2,92.8,403,92.1,403,90.7z
			"/>
	</g>
	<g>
		<path d="M470.5,80.7h2l3.2,7.2c0.4,0.9,0.9,2.2,1.3,3.1l0.1,0c-0.2-1.4-0.3-3.5-0.3-4.7v-5.5h2v14h-2l-3.1-6.9
			c-0.4-1-1-2.5-1.3-3.4l-0.1,0c0.1,1.4,0.2,3.5,0.2,4.8v5.4h-2V80.7z"/>
		<path d="M481.3,90.3v-5.1c0-2.9,1.6-4.7,4.3-4.7c2.7,0,4.3,1.8,4.3,4.7v5.1c0,2.9-1.6,4.7-4.3,4.7C482.9,95,481.3,93.2,481.3,90.3
			z M487.8,90.3v-5.1c0-1.8-0.8-2.7-2.2-2.7c-1.5,0-2.2,1-2.2,2.7v5.1c0,1.8,0.7,2.7,2.2,2.7C487,93,487.8,92,487.8,90.3z"/>
		<path d="M492.2,80.7h3.5c2.7,0,4.3,1.6,4.3,4.4v5.3c0,2.8-1.6,4.4-4.3,4.4h-3.5V80.7z M495.7,92.8c1.4,0,2.3-0.9,2.3-2.5v-5.2
			c0-1.6-0.8-2.5-2.3-2.5h-1.5v10.2H495.7z"/>
		<path d="M509.5,92.8v1.9h-7.1v-14h6.9v1.9h-4.9v4.1h4.5v1.9h-4.5v4.3H509.5z"/>
		<path d="M511,93.7c0-0.7,0.5-1.2,1.2-1.2s1.2,0.5,1.2,1.2c0,0.7-0.5,1.2-1.2,1.2S511,94.5,511,93.7z"/>
		<path d="M514.2,95.2c1.5,0,2.3-0.6,2.3-2.7V80.7h2v11.8c0,3-1.5,4.6-4.4,4.6V95.2z"/>
		<path d="M520.4,90.9h2.1c0,1.4,0.8,2.1,2,2.1c1.3,0,2-0.8,2-1.9c0-2.8-5.9-2.9-5.9-7.1c0-2,1.5-3.5,3.8-3.5c2.4,0,3.8,1.5,3.9,3.9
			h-2.1c0-1.3-0.7-2-1.8-2c-1.1,0-1.8,0.6-1.8,1.6c0,2.7,5.9,2.7,5.9,7.1c0,2.1-1.5,3.9-4.1,3.9C522,95,520.4,93.4,520.4,90.9z"/>
	</g>
	<g>
		<path d="M61.6,142.6v4.2h4.2v1.8h-4.2v6.1h-2v-14h6.6v1.9H61.6z"/>
		<path d="M68.1,140.7h2v14h-2V140.7z"/>
		<path d="M72.5,150.5v-5.7c0-2.8,1.6-4.4,4.1-4.4c2.5,0,4,1.5,4.1,4.3h-2c-0.1-1.6-0.8-2.3-2.1-2.3s-2,0.7-2,2.4v5.7
			c0,1.7,0.8,2.4,2.1,2.4c1.3,0,2.1-0.7,2.1-2.3v-1.8h-2.2v-1.8h4.2v3.6c0,2.7-1.6,4.3-4.2,4.3S72.5,153.4,72.5,150.5z"/>
		<path d="M93.8,140.7v14h-2v-5.5c0-1.6,0.1-3.1,0.2-4.5l-0.1,0c-0.4,1.1-0.9,2.4-1.4,3.7l-1.2,3.2h-2l-1.2-3.2
			c-0.5-1.3-1-2.6-1.4-3.7l-0.1,0c0.1,1.5,0.1,2.9,0.2,4.5v5.5h-2v-14h2.1l2.4,5.7c0.3,0.8,0.8,2.1,1,2.8h0.1c0.2-0.6,0.7-2,1-2.8
			l2.4-5.7H93.8z"/>
		<path d="M101.8,151.9h-3.7l-0.6,2.8h-2.1l3.5-14h2.2l3.5,14h-2.1L101.8,151.9z M101.4,150l-0.9-3.8c-0.2-0.9-0.4-2.3-0.5-3H100
			c-0.1,0.7-0.3,2.1-0.5,3l-0.9,3.8H101.4z"/>
	</g>
	<g>
		<path d="M193.6,145.2c0,2.9-1.6,4.6-4.3,4.6h-1.7v4.9h-2v-14h3.7C192,140.7,193.6,142.3,193.6,145.2z M191.5,145.2
			c0-1.7-0.7-2.6-2.3-2.6h-1.7v5.3h1.7C190.7,147.9,191.5,147,191.5,145.2z"/>
		<path d="M195.2,150.3v-5.1c0-2.9,1.6-4.7,4.3-4.7c2.7,0,4.3,1.8,4.3,4.7v5.1c0,2.9-1.6,4.7-4.3,4.7
			C196.8,155,195.2,153.2,195.2,150.3z M201.7,150.3v-5.1c0-1.8-0.8-2.7-2.2-2.7c-1.5,0-2.2,1-2.2,2.7v5.1c0,1.8,0.7,2.7,2.2,2.7
			C200.9,153,201.7,152,201.7,150.3z"/>
		<path d="M205.3,150.9h2.1c0,1.4,0.8,2.1,2,2.1c1.3,0,2-0.8,2-1.9c0-2.8-5.9-2.9-5.9-7.1c0-2,1.5-3.5,3.8-3.5
			c2.4,0,3.8,1.5,3.9,3.9h-2.1c0-1.3-0.7-2-1.8-2c-1.1,0-1.8,0.6-1.8,1.6c0,2.7,5.9,2.7,5.9,7.1c0,2.1-1.5,3.9-4.1,3.9
			C206.9,155,205.3,153.4,205.3,150.9z"/>
		<path d="M222.3,142.6h-2.9v12.1h-2.1v-12.1h-2.9v-1.9h7.9V142.6z"/>
		<path d="M234.9,140.7v14h-2v-5.5c0-1.6,0.1-3.1,0.2-4.5l-0.1,0c-0.4,1.1-0.9,2.4-1.4,3.7l-1.2,3.2h-2l-1.2-3.2
			c-0.5-1.3-1-2.6-1.4-3.7l-0.1,0c0.1,1.5,0.1,2.9,0.2,4.5v5.5h-2v-14h2.1l2.4,5.7c0.3,0.8,0.8,2.1,1,2.8h0.1c0.2-0.6,0.7-2,1-2.8
			l2.4-5.7H234.9z"/>
		<path d="M242.9,151.9h-3.7l-0.6,2.8h-2.1l3.5-14h2.2l3.5,14h-2.1L242.9,151.9z M242.5,150l-0.9-3.8c-0.2-0.9-0.4-2.3-0.5-3h-0.1
			c-0.1,0.7-0.3,2.1-0.5,3l-0.9,3.8H242.5z"/>
		<path d="M247.3,140.7h2l3.2,7.2c0.4,0.9,0.9,2.2,1.3,3.1l0.1,0c-0.2-1.4-0.3-3.5-0.3-4.7v-5.5h2v14h-2l-3.1-6.9
			c-0.4-1-1-2.5-1.3-3.4l-0.1,0c0.1,1.4,0.2,3.5,0.2,4.8v5.4h-2V140.7z"/>
	</g>
	<g>
		<path d="M347.6,150.7c0,2.5-1.6,4-4,4h-4v-14h3.8c2.3,0,3.7,1.5,3.7,3.8c0,1.4-0.6,2.5-1.4,3C346.9,148,347.6,149.2,347.6,150.7z
			 M341.6,142.6v4h1.6c1.2,0,1.8-0.7,1.8-2.1c0-1.3-0.6-2-1.9-2H341.6z M345.5,150.7c0-1.4-0.9-2.2-2.3-2.2h-1.6v4.3h1.7
			C344.8,152.8,345.5,152.1,345.5,150.7z"/>
		<path d="M356.6,152.8v1.9h-7.1v-14h6.9v1.9h-4.9v4.1h4.5v1.9h-4.5v4.3H356.6z"/>
		<path d="M369.7,140.7v14h-2v-5.5c0-1.6,0.1-3.1,0.2-4.5l-0.1,0c-0.4,1.1-0.9,2.4-1.4,3.7l-1.2,3.2h-2l-1.2-3.2
			c-0.5-1.3-1-2.6-1.4-3.7l-0.1,0c0.1,1.5,0.1,2.9,0.2,4.5v5.5h-2v-14h2.1l2.4,5.7c0.3,0.8,0.8,2.1,1,2.8h0.1c0.2-0.6,0.7-2,1-2.8
			l2.4-5.7H369.7z"/>
	</g>
</g>
<g id="Layer_2">
	<path class="st1" d="M37.6,142.3h-6.9v-13.5h6.9c3.7,0,6.7,3,6.7,6.7S41.3,142.3,37.6,142.3z M32.9,140.1h4.7c2.5,0,4.5-2,4.5-4.5
		s-2-4.5-4.5-4.5h-4.7C32.9,131,32.9,140.1,32.9,140.1z M32.9,142.3H26c-3.7,0-6.7-3-6.7-6.7c0-3.7,3-6.7,6.7-6.7h6.9L32.9,142.3
		L32.9,142.3z M26,131c-2.5,0-4.5,2-4.5,4.5s2,4.5,4.5,4.5h4.7V131C30.7,131,26,131,26,131z M32.9,153.6H26c-3.7,0-6.7-3-6.7-6.7
		s3-6.7,6.7-6.7h6.9L32.9,153.6L32.9,153.6z M26,142.3c-2.5,0-4.5,2-4.5,4.5s2,4.5,4.5,4.5h4.7v-9.1H26z M26.1,164.8
		c-3.7,0-6.8-3-6.8-6.7s3-6.7,6.7-6.7h6.9v6.7C32.9,161.8,29.9,164.8,26.1,164.8z M26,153.6c-2.5,0-4.5,2-4.5,4.5
		c0,2.5,2,4.5,4.6,4.5c2.6,0,4.6-2.1,4.6-4.6v-4.5H26z M37.6,153.6h-0.1c-3.7,0-6.7-3-6.7-6.7s3-6.7,6.7-6.7h0.1
		c3.7,0,6.7,3,6.7,6.7S41.3,153.6,37.6,153.6z M37.5,142.3c-2.5,0-4.5,2-4.5,4.5s2,4.5,4.5,4.5h0.1c2.5,0,4.5-2,4.5-4.5
		s-2-4.5-4.5-4.5C37.6,142.3,37.5,142.3,37.5,142.3z"/>
	<path class="st2" d="M35.2,87.4c0,1.9-1.5,3.4-3.4,3.4c-1.9,0-3.4-1.5-3.4-3.4l0,0c0-1.9,1.5-3.4,3.4-3.4
		C33.7,84.1,35.2,85.6,35.2,87.4L35.2,87.4z M39.1,71.4c-2,0-4.7,1.4-7.3,3.9c-2.7-2.5-5.3-3.9-7.3-3.9c-0.6,0-1.2,0.1-1.7,0.4
		c-2.1,1.2-2.5,4.9-1.5,9.5c-4.6,1.4-7.5,3.7-7.5,6c0,2.4,3,4.6,7.6,6c-1.1,4.7-0.6,8.4,1.5,9.6c0.5,0.3,1,0.4,1.7,0.4
		c2,0,4.7-1.4,7.3-3.9c2.7,2.5,5.3,3.9,7.3,3.9c0.6,0,1.2-0.1,1.7-0.4c2.1-1.2,2.5-4.9,1.5-9.5c4.5-1.4,7.5-3.7,7.5-6
		c0-2.4-3-4.6-7.6-6c1.1-4.7,0.6-8.4-1.5-9.6C40.3,71.6,39.7,71.4,39.1,71.4L39.1,71.4z M39.1,73L39.1,73c0.3,0,0.6,0.1,0.8,0.2
		c1,0.6,1.4,2.8,1.1,5.6c-0.1,0.7-0.2,1.4-0.4,2.2c-1.4-0.4-3-0.6-4.7-0.8c-1-1.4-2-2.6-3.1-3.7C35.4,74.3,37.6,73.1,39.1,73
		L39.1,73z M24.5,73.1c1.5,0,3.8,1.2,6.2,3.4c-1,1.1-2.1,2.3-3,3.7c-1.7,0.2-3.2,0.4-4.7,0.8c-0.2-0.7-0.3-1.4-0.4-2.1
		c-0.3-2.8,0.1-5,1.1-5.6C23.9,73.1,24.2,73.1,24.5,73.1L24.5,73.1z M31.8,77.7c0.7,0.7,1.4,1.5,2,2.3c-0.7,0-1.3-0.1-2-0.1
		c-0.7,0-1.4,0-2,0.1C30.4,79.1,31.1,78.4,31.8,77.7L31.8,77.7z M31.8,81.6c1.1,0,2.2,0.1,3.3,0.1c0.6,0.9,1.2,1.8,1.8,2.8
		c0.6,1,1.1,1.9,1.5,2.9c-0.5,1-1,2-1.5,2.9c-0.6,1-1.2,1.9-1.8,2.8c-1.1,0.1-2.2,0.1-3.3,0.1c-1.1,0-2.2-0.1-3.3-0.1
		c-0.6-0.9-1.2-1.8-1.8-2.8c-0.6-1-1.1-1.9-1.5-2.9c0.5-1,1-2,1.5-2.9c0.6-1,1.2-1.9,1.8-2.8C29.6,81.6,30.7,81.6,31.8,81.6
		L31.8,81.6z M26.4,82c-0.4,0.6-0.7,1.1-1.1,1.7c-0.3,0.6-0.7,1.2-1,1.8c-0.4-1-0.7-2-1-2.9C24.3,82.3,25.3,82.1,26.4,82L26.4,82z
		 M37.3,82c1,0.2,2,0.3,3,0.6c-0.3,0.9-0.6,1.9-1,2.9c-0.3-0.6-0.6-1.2-1-1.8C38,83.1,37.6,82.5,37.3,82L37.3,82z M41.9,83
		c0.7,0.2,1.4,0.5,2.1,0.7c2.6,1.1,4.3,2.6,4.3,3.7c0,1.2-1.7,2.6-4.3,3.7c-0.6,0.3-1.3,0.5-2,0.7c-0.4-1.4-1-2.9-1.6-4.5
		C40.9,85.9,41.4,84.4,41.9,83L41.9,83z M21.8,83c0.4,1.4,1,2.9,1.6,4.5c-0.7,1.5-1.2,3-1.6,4.4c-0.7-0.2-1.4-0.5-2.1-0.8
		c-2.6-1.1-4.3-2.6-4.3-3.7s1.7-2.6,4.3-3.7C20.4,83.5,21,83.2,21.8,83z M39.3,89.4c0.4,1,0.7,2,1,2.9c-1,0.2-2,0.4-3,0.6
		c0.4-0.6,0.7-1.1,1.1-1.7C38.7,90.6,39,90,39.3,89.4L39.3,89.4z M24.4,89.4c0.3,0.6,0.6,1.2,1,1.8c0.3,0.6,0.7,1.2,1.1,1.7
		c-1-0.2-2-0.3-3-0.6C23.6,91.4,24,90.4,24.4,89.4L24.4,89.4z M40.7,93.9c0.2,0.7,0.3,1.5,0.4,2.1c0.3,2.8-0.1,5-1.1,5.6
		c-0.2,0.1-0.5,0.2-0.8,0.2c-1.5,0-3.8-1.2-6.2-3.4c1-1.1,2.1-2.3,3-3.7C37.7,94.6,39.3,94.3,40.7,93.9L40.7,93.9z M23,93.9
		c1.4,0.4,3,0.6,4.7,0.8c1,1.4,2,2.6,3.1,3.7c-2.4,2.2-4.6,3.4-6.2,3.4c-0.3,0-0.6-0.1-0.8-0.2c-1-0.6-1.4-2.8-1.1-5.6
		C22.7,95.4,22.8,94.7,23,93.9L23,93.9z M29.8,94.9c0.7,0,1.3,0.1,2,0.1c0.7,0,1.4,0,2-0.1c-0.7,0.9-1.3,1.6-2,2.3
		C31.2,96.5,30.5,95.8,29.8,94.9z"/>
	<path class="st3" d="M16.1,11.2h31.5l-2.9,32.3l-12.9,3.7l-12.8-3.7L16.1,11.2z M26.6,25.8l-0.3-4.1l15.1,0l0.3-3.9l-19.8,0l1,12
		h13.7l-0.5,5.1l-4.4,1.2l-4.4-1.2l-0.3-3.2h-3.9l0.5,6.3l8.1,2.2l8.1-2.2L41,25.8L26.6,25.8L26.6,25.8z"/>
	<g>
		<g>
			<path d="M456.2,150.5v-5.7c0-2.8,1.6-4.4,4.1-4.4c2.5,0,4,1.5,4.1,4.3h-2c-0.1-1.6-0.8-2.3-2.1-2.3s-2,0.7-2,2.4v5.7
				c0,1.7,0.8,2.4,2.1,2.4c1.3,0,2.1-0.7,2.1-2.3v-1.8h-2.2v-1.8h4.2v3.6c0,2.7-1.6,4.3-4.2,4.3S456.2,153.4,456.2,150.5z"/>
			<path d="M466.6,140.7h2v14h-2V140.7z"/>
			<path d="M478.2,142.6h-2.9v12.1h-2.1v-12.1h-2.9v-1.9h7.9V142.6z"/>
		</g>
		<path class="st1" d="M443.7,145.2L428,129.5c-0.9-0.9-2.4-0.9-3.3,0l-3.3,3.3l4.1,4.1c1-0.3,2.1-0.1,2.8,0.7
			c0.8,0.8,1,1.9,0.7,2.9l4,4c1-0.3,2.1-0.1,2.8,0.7c1.1,1.1,1.1,2.8,0,3.9c-1.1,1.1-2.8,1.1-3.9,0c-0.8-0.8-1-2-0.6-3l-3.7-3.7v9.8
			c0.3,0.1,0.5,0.3,0.7,0.5c1.1,1.1,1.1,2.8,0,3.9c-1.1,1.1-2.8,1.1-3.9,0c-1.1-1.1-1.1-2.8,0-3.9c0.3-0.3,0.6-0.5,0.9-0.6v-9.9
			c-0.3-0.1-0.6-0.3-0.9-0.6c-0.8-0.8-1-2-0.6-3l-4.1-4.1l-10.8,10.8c-0.9,0.9-0.9,2.4,0,3.3l15.7,15.7c0.9,0.9,2.4,0.9,3.3,0
			l15.6-15.6C444.6,147.6,444.6,146.1,443.7,145.2"/>
	</g>
	<path class="st2" d="M280.6,11.2h36v36h-36V11.2z M313.7,38.6c-0.3-1.6-1.3-3-4.5-4.3c-1.1-0.5-2.3-0.9-2.7-1.7
		c-0.1-0.5-0.2-0.8-0.1-1.1c0.2-1,1.4-1.3,2.3-1c0.6,0.2,1.1,0.6,1.5,1.4c1.6-1,1.6-1,2.6-1.7c-0.4-0.6-0.6-0.9-0.9-1.2
		c-0.9-1.1-2.2-1.6-4.3-1.6l-1.1,0.1c-1,0.2-2,0.8-2.6,1.5c-1.7,1.9-1.2,5.3,0.9,6.7c2,1.5,5,1.9,5.4,3.3c0.4,1.8-1.3,2.3-2.9,2.1
		c-1.2-0.3-1.9-0.9-2.6-2l-2.7,1.6c0.3,0.7,0.7,1,1.2,1.7c2.6,2.6,9.1,2.5,10.3-1.5c0-0.1,0.4-1.1,0.1-2.5
		C313.6,38.5,313.7,38.6,313.7,38.6z M300.2,27.7h-3.4c0,2.9,0,5.8,0,8.7c0,1.8,0.1,3.5-0.2,4.1c-0.5,1-1.8,0.9-2.3,0.7
		c-0.6-0.3-0.9-0.7-1.2-1.3c-0.1-0.2-0.2-0.3-0.2-0.3l-2.7,1.7c0.5,0.9,1.1,1.8,2,2.3c1.3,0.8,3,1,4.8,0.6c1.2-0.3,2.2-1,2.7-2.1
		c0.8-1.4,0.6-3.1,0.6-5C300.2,34,300.2,30.9,300.2,27.7C300.2,27.8,300.2,27.7,300.2,27.7z"/>
	<path class="st3" d="M443.3,105.4c-0.5,0-1-0.1-1.4-0.4l-4.4-2.6c-0.7-0.4-0.3-0.5-0.1-0.6c0.9-0.3,1.1-0.4,2-0.9
		c0.1-0.1,0.2,0,0.3,0l3.4,2c0.1,0.1,0.3,0.1,0.4,0l13.2-7.6c0.1-0.1,0.2-0.2,0.2-0.4V79.8c0-0.1-0.1-0.3-0.2-0.4l-13.2-7.6
		c-0.1-0.1-0.3-0.1-0.4,0l-13.2,7.6c-0.1,0.1-0.2,0.2-0.2,0.4v15.2c0,0.1,0.1,0.3,0.2,0.4l3.6,2.1c2,1,3.2-0.2,3.2-1.3v-15
		c0-0.2,0.2-0.4,0.4-0.4h1.7c0.2,0,0.4,0.2,0.4,0.4v15c0,2.6-1.4,4.1-3.9,4.1c-0.8,0-1.4,0-3-0.8l-3.5-2c-0.9-0.5-1.4-1.4-1.4-2.4
		V79.8c0-1,0.5-1.9,1.4-2.4l13.2-7.6c0.8-0.5,1.9-0.5,2.8,0l13.2,7.6c0.9,0.5,1.4,1.4,1.4,2.4v15.2c0,1-0.5,1.9-1.4,2.4l-13.2,7.6
		C444.3,105.3,443.8,105.4,443.3,105.4z M454,90.4c0-2.8-1.9-3.6-6-4.1c-4.1-0.5-4.5-0.8-4.5-1.8c0-0.8,0.4-1.8,3.4-1.8
		c2.7,0,3.7,0.6,4.1,2.4c0,0.2,0.2,0.3,0.4,0.3h1.7c0.1,0,0.2,0,0.3-0.1c0.1-0.1,0.1-0.2,0.1-0.3c-0.3-3.1-2.4-4.6-6.6-4.6
		c-3.8,0-6,1.6-6,4.2c0,2.9,2.2,3.7,5.8,4c4.3,0.4,4.7,1.1,4.7,1.9c0,1.5-1.2,2.1-4,2.1c-3.5,0-4.3-0.9-4.5-2.6
		c0-0.2-0.2-0.3-0.4-0.3h-1.7c-0.2,0-0.4,0.2-0.4,0.4c0,2.2,1.2,4.9,7,4.9C451.6,95,454,93.3,454,90.4z"/>
	<path class="st4" d="M156.7,129c-9.9-1.3-18.9,5.7-20.1,15.6c-1.3,9.9,5.7,18.9,15.6,20.1c9.9,1.3,18.9-5.7,20.1-15.6
		C173.5,139.3,166.6,130.2,156.7,129z M160.4,140.2c-0.3,0-0.7,0.1-0.9,0.4l-6.7,6.7l-0.5-0.5l-1-1
		C158,139.3,159.2,139.2,160.4,140.2z M153.1,147.5l6.7-6.7c0.4-0.4,0.9-0.4,1.3,0c0.4,0.4,0.4,0.9,0,1.3c0,0,0,0-0.1,0.1l-7,6.2
		C154,148.4,153.1,147.5,153.1,147.5z M153.6,148.5l-1.7,0.4c0,0-0.1,0-0.1,0c0,0,0-0.1,0-0.1l1-1
		C152.8,147.8,153.6,148.5,153.6,148.5z M149.4,147.9l1.8-1.8l1.3,1.3l-3,0.6c-0.1,0-0.1,0-0.1-0.1
		C149.4,147.9,149.4,147.9,149.4,147.9z M143.9,156.9c-0.1,0-0.1-0.1-0.1-0.1c0,0,0,0,0,0c0,0,0-0.1,0-0.1h0l1.4-1.4l1.8,1.8
		C147.1,157.2,143.9,156.9,143.9,156.9z M147.6,155.1c-0.1,0.1-0.2,0.2-0.2,0.4l0.3,1.3c0,0.1,0,0.2-0.1,0.2c-0.1,0-0.1,0-0.2-0.1h0
		l-1.4-1.4l-0.4-0.4l5.6-5.6l2.7-0.6l1.3,1.3C153.3,151.8,150.8,153.5,147.6,155.1z M155.5,149.9L155.5,149.9l-1.3-1.3l7-6.2
		c0.1-0.1,0.1-0.1,0.2-0.2C161.2,144.3,158.4,147.1,155.5,149.9z M161,140.2L161,140.2c-1.1-1.1-1.1-2.8,0-3.9c1-1,2.6-1.1,3.7-0.2
		l-2.4,2.4c-0.1,0.1-0.1,0.2,0,0.3c0,0,0,0,0,0l1.9,1.9C163.1,141.3,161.8,141.1,161,140.2z M164.8,140.2c-0.1,0.1-0.3,0.2-0.4,0.3
		h0l-1.8-1.8l2.3-2.3C165.9,137.5,165.9,139.2,164.8,140.2z M164.7,137.9c-0.1,0.1-0.1,0.1-0.1,0.2c0.1,0.2,0.1,0.5-0.1,0.7
		c-0.1,0.1-0.1,0.2,0,0.3c0,0,0,0,0,0c0,0,0.1,0,0.1,0c0.1,0,0.1,0,0.2-0.1c0.3-0.3,0.3-0.8,0.1-1.1
		C164.9,137.9,164.8,137.8,164.7,137.9C164.7,137.9,164.7,137.9,164.7,137.9z"/>
	<path class="st3" d="M290.6,136.6h8.4v2.5h-8.4V136.6z M290.6,132h8.4v2.5h-8.4V132z M305.7,141.1h-15.1v2.5h14.5
		c1.6,0,5.3,0,6.7,2.3v-1.4C311.2,142.3,309.2,141.1,305.7,141.1z M305.8,145.7h-15.1v2.5h14.5c3.5,0,5.8,0.1,6.7,0.6v-1.1
		C311.1,146,308.2,145.7,305.8,145.7z M305.7,157.4h-15.1v-2.5h14.5c1.6,0,5.3,0,6.7-2.3v1.4C311.2,156.2,309.2,157.4,305.7,157.4
		L305.7,157.4z M305.8,152.8h-15.1v-2.5h14.5c3.5,0,5.8-0.1,6.7-0.6v1.1C311.1,152.5,308.2,152.8,305.8,152.8z M315.5,161.7h11.1
		v-1.5h-10.8c-1,0-3.2,0-4-1.3v0.8C312.2,161,313.4,161.7,315.5,161.7z M315.5,158.9h11.1v-1.5h-10.8c-2.2,0-3.5-0.1-4-0.4v0.7
		C312.2,158.7,314,158.9,315.5,158.9z"/>
	<path class="st5" d="M138.7,11.2h31.5l-2.9,32.3l-12.9,3.7l-12.8-3.7L138.7,11.2z M164.3,17.8l-19.8,0l0.3,3.9l15.2,0l-0.4,4.1h-10
		l0.4,3.9h9.3l-0.5,5.3l-4.4,1.2l-4.4-1.2l-0.3-3.2h-3.9l0.4,5.8l8.2,2.6l8.1-2.3L164.3,17.8L164.3,17.8z"/>
	<path class="st6" d="M306.4,98.1c0,0,0-15.4,0.5-15.4c0.4,0,0.9,19.8,0.9,19.8C307.1,102.5,306.4,99.3,306.4,98.1L306.4,98.1z
		 M316.3,82.9c-1.4-6-4.4-11.1-8.5-15l0,0c-0.5-0.8-1-1.6-1.3-2.6l0-0.1c0,0,0,0.1,0,0.1c0,0.8-0.4,1.6-1,2.1l0,0
		c-5.3,4.5-8.7,11.1-8.8,18.6v0c0,0.1,0,0.2,0,0.3c0,7.4,3.5,13.9,9,18l0.1,0l0.1,0.1c0.2,1.8,0.4,3.5,0.6,5.3h0.9
		c0.2-2.2,0.6-4.1,1-6l-0.1,0.4c0.6-0.4,1.1-0.8,1.6-1.3l0,0c4.2-3.9,6.8-9.3,6.8-15.4c0-0.1,0-0.2,0-0.3v0c0-1.5-0.1-2.9-0.4-4.3
		L316.3,82.9L316.3,82.9z"/>
	<path class="st7" d="M173.8,98.1c-1.4,0.4-2.3,0-3.1-1.2l-5.6-7.7l-0.8-1.1l-6.5,8.8c-0.7,1.1-1.5,1.5-2.9,1.1l8.3-11.2l-7.7-10.1
		c1.3-0.3,2.3-0.1,3.1,1.1l5.8,7.8l5.8-7.7c0.7-1.1,1.5-1.5,2.9-1.1l-3,4l-4.1,5.3c-0.5,0.6-0.4,1,0,1.6L173.8,98.1z M135.1,86.8
		l0.7-3.3c1.9-6.6,9.4-9.4,14.7-5.3c3.1,2.4,3.8,5.8,3.7,9.6h-17.2c-0.3,6.9,4.7,11,11,8.9c2.2-0.7,3.5-2.5,4.2-4.6
		c0.3-1.1,0.9-1.3,1.9-0.9c-0.5,2.7-1.7,5-4.2,6.4c-3.7,2.1-9,1.4-11.8-1.5c-1.7-1.7-2.3-3.9-2.7-6.2c0-0.4-0.1-0.7-0.2-1.1
		C135.1,88,135.1,87.4,135.1,86.8L135.1,86.8z M136.9,86.3h15.6c-0.1-5-3.2-8.5-7.4-8.5C140.4,77.7,137.1,81.2,136.9,86.3z"/>
</g>
</svg>
